<mxfile host="app.diagrams.net" agent="Mozilla/5.0 (Windows NT 10.0; Win64; x64; rv:138.0) Gecko/20100101 Firefox/138.0" version="27.0.5">
  <diagram name="Page-1" id="Nm0rdBib-V-6D63UcJDX">
    <mxGraphModel dx="1281" dy="542" grid="1" gridSize="10" guides="1" tooltips="1" connect="1" arrows="1" fold="1" page="1" pageScale="1" pageWidth="1100" pageHeight="850" math="0" shadow="0">
      <root>
        <mxCell id="0" />
        <mxCell id="1" parent="0" />
        <mxCell id="pU3MW7vX4CpFjuoFZaQh-1" value="&lt;font style=&quot;font-size: 14px;&quot;&gt;&lt;b&gt;AWS Cloud&lt;/b&gt;&lt;/font&gt;" style="sketch=0;outlineConnect=0;gradientColor=none;html=1;whiteSpace=wrap;fontSize=12;fontStyle=0;shape=mxgraph.aws4.group;grIcon=mxgraph.aws4.group_aws_cloud;strokeColor=#AAB7B8;fillColor=none;verticalAlign=top;align=left;spacingLeft=30;fontColor=light-dark(#232f3e, #ededed);dashed=0;" parent="1" vertex="1">
          <mxGeometry x="40" y="220" width="1120" height="890" as="geometry" />
        </mxCell>
        <mxCell id="pU3MW7vX4CpFjuoFZaQh-7" value="&lt;font style=&quot;font-size: 14px;&quot;&gt;&lt;b&gt;Availability Zone 2 (eu-west-3b)&lt;/b&gt;&lt;/font&gt;" style="fillColor=none;strokeColor=#147EBA;dashed=1;verticalAlign=top;fontStyle=0;fontColor=#147EBA;whiteSpace=wrap;html=1;" parent="1" vertex="1">
          <mxGeometry x="640" y="305" width="490" height="783" as="geometry" />
        </mxCell>
        <mxCell id="pU3MW7vX4CpFjuoFZaQh-8" value="Public subnet (vpc-mastodon-subnet-public2-eu-west-3b)&lt;div&gt;10.0.1.0/24&lt;/div&gt;" style="points=[[0,0],[0.25,0],[0.5,0],[0.75,0],[1,0],[1,0.25],[1,0.5],[1,0.75],[1,1],[0.75,1],[0.5,1],[0.25,1],[0,1],[0,0.75],[0,0.5],[0,0.25]];outlineConnect=0;gradientColor=none;html=1;whiteSpace=wrap;fontSize=12;fontStyle=0;container=0;pointerEvents=0;collapsible=0;recursiveResize=0;shape=mxgraph.aws4.group;grIcon=mxgraph.aws4.group_security_group;grStroke=0;strokeColor=#7AA116;fillColor=#F2F6E8;verticalAlign=top;align=left;spacingLeft=30;fontColor=#248814;dashed=0;" parent="1" vertex="1">
          <mxGeometry x="650" y="490" width="470" height="313" as="geometry" />
        </mxCell>
        <mxCell id="pU3MW7vX4CpFjuoFZaQh-66" value="Security group" style="fillColor=none;strokeColor=#DD3522;verticalAlign=top;fontStyle=1;fontColor=#DD3522;whiteSpace=wrap;html=1;strokeWidth=2;dashed=1;dashPattern=8 8;" parent="1" vertex="1">
          <mxGeometry x="703" y="528" width="364" height="266" as="geometry" />
        </mxCell>
        <mxCell id="pU3MW7vX4CpFjuoFZaQh-6" value="&lt;font style=&quot;font-size: 14px;&quot;&gt;&lt;b&gt;Availability Zone 1 (eu-west-3a)&lt;/b&gt;&lt;/font&gt;" style="fillColor=none;strokeColor=#147EBA;dashed=1;verticalAlign=top;fontStyle=0;fontColor=#147EBA;whiteSpace=wrap;html=1;" parent="1" vertex="1">
          <mxGeometry x="130" y="305" width="500" height="783" as="geometry" />
        </mxCell>
        <mxCell id="pU3MW7vX4CpFjuoFZaQh-10" value="Public subnet (vpc-mastodon-subnet-public1-eu-west-3a)&lt;div&gt;10.0.0.0/24&lt;/div&gt;" style="points=[[0,0],[0.25,0],[0.5,0],[0.75,0],[1,0],[1,0.25],[1,0.5],[1,0.75],[1,1],[0.75,1],[0.5,1],[0.25,1],[0,1],[0,0.75],[0,0.5],[0,0.25]];outlineConnect=0;gradientColor=none;html=1;whiteSpace=wrap;fontSize=12;fontStyle=0;container=0;pointerEvents=0;collapsible=0;recursiveResize=0;shape=mxgraph.aws4.group;grIcon=mxgraph.aws4.group_security_group;grStroke=0;strokeColor=#7AA116;fillColor=#F2F6E8;verticalAlign=top;align=left;spacingLeft=30;fontColor=#248814;dashed=0;" parent="1" vertex="1">
          <mxGeometry x="140" y="490" width="480" height="312" as="geometry" />
        </mxCell>
        <mxCell id="pU3MW7vX4CpFjuoFZaQh-65" value="Security group" style="fillColor=none;strokeColor=#DD3522;verticalAlign=top;fontStyle=1;fontColor=#DD3522;whiteSpace=wrap;html=1;strokeWidth=2;dashed=1;dashPattern=8 8;" parent="1" vertex="1">
          <mxGeometry x="196" y="531" width="364" height="266" as="geometry" />
        </mxCell>
        <mxCell id="pU3MW7vX4CpFjuoFZaQh-2" value="&lt;font style=&quot;font-size: 14px;&quot;&gt;&lt;b&gt;Region (eu-west-3)&lt;/b&gt;&lt;/font&gt;" style="points=[[0,0],[0.25,0],[0.5,0],[0.75,0],[1,0],[1,0.25],[1,0.5],[1,0.75],[1,1],[0.75,1],[0.5,1],[0.25,1],[0,1],[0,0.75],[0,0.5],[0,0.25]];outlineConnect=0;gradientColor=none;html=1;whiteSpace=wrap;fontSize=12;fontStyle=0;container=1;pointerEvents=0;collapsible=0;recursiveResize=0;shape=mxgraph.aws4.group;grIcon=mxgraph.aws4.group_region;strokeColor=#00A4A6;fillColor=none;verticalAlign=top;align=left;spacingLeft=30;fontColor=#147EBA;dashed=1;" parent="1" vertex="1">
          <mxGeometry x="70" y="245" width="1080" height="855" as="geometry" />
        </mxCell>
        <mxCell id="pU3MW7vX4CpFjuoFZaQh-3" value="&lt;font style=&quot;font-size: 14px;&quot;&gt;&lt;b&gt;VPC (&lt;/b&gt;vpc-mastodon&lt;b&gt;)&lt;/b&gt;&lt;/font&gt;" style="points=[[0,0],[0.25,0],[0.5,0],[0.75,0],[1,0],[1,0.25],[1,0.5],[1,0.75],[1,1],[0.75,1],[0.5,1],[0.25,1],[0,1],[0,0.75],[0,0.5],[0,0.25]];outlineConnect=0;gradientColor=none;html=1;whiteSpace=wrap;fontSize=12;fontStyle=0;container=1;pointerEvents=0;collapsible=0;recursiveResize=0;shape=mxgraph.aws4.group;grIcon=mxgraph.aws4.group_vpc2;strokeColor=#8C4FFF;fillColor=none;verticalAlign=top;align=left;spacingLeft=30;fontColor=#AAB7B8;dashed=0;" parent="pU3MW7vX4CpFjuoFZaQh-2" vertex="1">
          <mxGeometry x="30" y="30" width="1040" height="820" as="geometry" />
        </mxCell>
        <mxCell id="pU3MW7vX4CpFjuoFZaQh-57" value="&lt;div style=&quot;font-size: 22px; font-weight: 700;&quot;&gt;CloudWatch&lt;/div&gt;" style="sketch=0;points=[[0,0,0],[0.25,0,0],[0.5,0,0],[0.75,0,0],[1,0,0],[0,1,0],[0.25,1,0],[0.5,1,0],[0.75,1,0],[1,1,0],[0,0.25,0],[0,0.5,0],[0,0.75,0],[1,0.25,0],[1,0.5,0],[1,0.75,0]];points=[[0,0,0],[0.25,0,0],[0.5,0,0],[0.75,0,0],[1,0,0],[0,1,0],[0.25,1,0],[0.5,1,0],[0.75,1,0],[1,1,0],[0,0.25,0],[0,0.5,0],[0,0.75,0],[1,0.25,0],[1,0.5,0],[1,0.75,0]];outlineConnect=0;fontColor=#232F3E;fillColor=#E7157B;strokeColor=#ffffff;dashed=0;verticalLabelPosition=bottom;verticalAlign=top;align=center;html=1;fontSize=12;fontStyle=0;aspect=fixed;shape=mxgraph.aws4.resourceIcon;resIcon=mxgraph.aws4.cloudwatch_2;" parent="pU3MW7vX4CpFjuoFZaQh-3" vertex="1">
          <mxGeometry x="486" y="315" width="95.5" height="95.5" as="geometry" />
        </mxCell>
        <mxCell id="l3YWQojSAwzRVdiFUmDI-4" value="" style="endArrow=classic;html=1;rounded=0;shape=flexArrow;entryX=1.002;entryY=0.409;entryDx=0;entryDy=0;entryPerimeter=0;" parent="pU3MW7vX4CpFjuoFZaQh-3" edge="1">
          <mxGeometry width="50" height="50" relative="1" as="geometry">
            <mxPoint x="353" y="365" as="sourcePoint" />
            <mxPoint x="473.72799999999995" y="364.794" as="targetPoint" />
          </mxGeometry>
        </mxCell>
        <mxCell id="l3YWQojSAwzRVdiFUmDI-5" value="" style="endArrow=classic;html=1;rounded=0;shape=flexArrow;exitX=0.294;exitY=0.412;exitDx=0;exitDy=0;exitPerimeter=0;" parent="pU3MW7vX4CpFjuoFZaQh-3" source="pU3MW7vX4CpFjuoFZaQh-66" edge="1">
          <mxGeometry width="50" height="50" relative="1" as="geometry">
            <mxPoint x="700" y="363" as="sourcePoint" />
            <mxPoint x="589.5" y="362.679712" as="targetPoint" />
          </mxGeometry>
        </mxCell>
        <mxCell id="l3YWQojSAwzRVdiFUmDI-2" value="Docker" style="shape=image;verticalLabelPosition=bottom;labelBackgroundColor=none;verticalAlign=top;aspect=fixed;imageAspect=0;image=data:image/png,iVBORw0KGgoAAAANSUhEUgAAAgAAAAIACAYAAAD0eNT6AAAAAXNSR0IArs4c6QAAAARnQU1BAACxjwv8YQUAAAAJcEhZcwAADsMAAA7DAcdvqGQAAAAYdEVYdFNvZnR3YXJlAFBhaW50Lk5FVCA1LjEuNBLfpoMAAAC2ZVhJZklJKgAIAAAABQAaAQUAAQAAAEoAAAAbAQUAAQAAAFIAAAAoAQMAAQAAAAIAAAAxAQIAEAAAAFoAAABphwQAAQAAAGoAAAAAAAAAYAAAAAEAAABgAAAAAQAAAFBhaW50Lk5FVCA1LjEuNAADAACQBwAEAAAAMDIzMAGgAwABAAAAAQAAAAWgBAABAAAAlAAAAAAAAAACAAEAAgAEAAAAUjk4AAIABwAEAAAAMDEwMAAAAADX5rshveZftAAAGbFJREFUeF7t3Quwa1d5H/C1jAMSjzjBEjHvJjwH8ijmVRhamExoktKUThNSSiFNQSJNQooTHoZCxw4lAbc8Ag5MjQRJ6JCMmQ4NtCFJYyY8CsMEsAcTHi4YsA04IBm7BlsCbK8u3fNdQsC+3Mc50n78fjP37O9b5/heS0fS+u+lrb0TAAAAAAAAAAAAAAAAAAAAAAAAAAAAAAAAAAAAAAAAAAAAAAAAAAAAAAAAAAAAAAAAAAAAAAAAAAAAAAAAAAAAAAAAAAAAAAAAAAAAAAAAAAAAAAAAAAAAAAAAAAAAAAAAAAAAAAAAAAAAAAAAAAAAAAAAAAAAAAAAAAAAAAAAAAAAAAAAAAAAAAAAAAAAAAAAAAAAAAAAAAAAAAAAAAAAAAAAAAAAAAAAAAAAAAAAAAAAAAAAAAAAAAAAAADsTo4t0CDD+bJE2ULlRavJ+KxogIY6KbYAQI8IAADQQwIAAPSQAAAAPSQAAEAPCQAA0EMCAAD0kAAAAD0kAABADwkAANBDAgAA9JAAAAA9JAAAQA8JAADQQwIAAPSQAAAAPSQAAEAPCQAA0EMCAAD0kAAAAD0kAABADwkAANBDAgAA9JAAAAA9JAAAQA8JAADQQwIAAPSQAAAAPSQAAEAPCQAA0EMCAAD0kAAAAD0kAABADwkAANBDAgAA9JAAAAA9JAAAQA8JAADQQwIAAPSQAAAAPSQAAEAPCQAA0EM5tkCDDGbL10XZOuvp6OlRAgAAAAAAAAAAAAAAAAAAAABHwYmAOmo4W7wvytZZTcePjPIWuX3NdTS3D9g9AaCjhvNlibJ1VpPRd31cun1NVl60mozPigZoKNcCAIAeEgAAoIcEAADoIQEAAHpIAACAHhIAAKCHBAAA6CEBAAB6SAAAgB4SAACghwQAAOghAQAAekgAAOipzUWnhvPFm6OlZwQAgB4azBdX7FX5CYP58gt7NX0iAAD0zHC2+IOc8t2i3VwX/s5WA/pHAADom5x/Iapvk58wmC2vjIaOEwAAeuRvl/5vXs7pNKsB/SAAAPTEcLb4vW9d+j8yqwFdJwAA9EXOvxjVUTm8GjCYL8+LITpEAADogbr3f3mUxyyn9PThfPHeaOkIAQCg4+rk/Ya6O3/3aI9TfuR3O36AdhEAADov/9soTsjm+IHhfPmVaGk5AQCgw4az5aVR7pfbD2eLm+qfs6OnpQQAgI4azhcvqrvtPxTt/sk51z9n1XDxxhihhQQAgK4q+TlRHYycnjKYLf9XdLSMAADQQYP54k/rBD2I9sDknB43nC/fHS0tIgAAdFBO+aei3IZ/OJgtL4yalhAAADpmOFu+M8qtyTk9qIaAD0VLCwgAAF2T06Oj2qoaAk4fzBbvj5aGEwAAOmQ4W7wvyp3IOT98OF++I1oaTAAA6JKcHxHVLv34YL7846hpKAEAoCPqnvcfRrlzOaXHD+aLc6OlgQQAgK4o5WejaoSc8jOipIEEAIAO2DvrX751tI1R/7++ESUNIwAAdEAp6alRNkw+eTBfXBUNDSIAAHRAzvmuUTZOTvmOg/nyr6KlIQQAgJYbzJavi7KxckoPHcwWvxMtDSAAALRdbtbBf7ekhoB/HyUNIAAAtNxmiT3KZss5D2aLz0XHjgkAAC3WhuX/b7U5VmE4W74xWnZIAABosZzLT0bZHjk9JSp2KMcWgBYazpclynYp6ZOr6ei+0bEDVgAAWmowXzw7yvbJ6T6D2fL50bEDAgBAS+WU/nGUrZRTeV6U7IAAANBWJT08qnbK+XudG2B3BACAtqoTaFStlVP65SjZMgEAgN3J+dYuG7wbAgBAC7Xt8/9HkkueRMkWCQAAbZTT6VG1X06DQ5czZqsEAIAWyindL8pOKCVPo2RLensioOF8eV2UrbOajG4X5S1y+5rraG7fYL64IsoWOumV68mpr4jmZtW9vf9TX34eFG2rlFT+bD0Z7/ziO609AdAR1OeGk9NtUZ8DQGufPEfzJHH7mqvrt69OkS9aTcZnRXOzBrPlh3JLl7DrL+bt68nocdHuTBcDQCrlgtV0/NjoOGDeAgCgGXL68ajYAgEAoGWGs8XLo+yYbE7aInc2QOvkH4iic4bz5buj5IAJAADtc1psu6eUR0bFARMAAFqmpHKnKLsn51tFxQETAADaJufuBoBqOFvMo+QACQAALZNTOTXKjsqPioIDJAAAtE4+OYqOKveNggMkAADQLDk7I+AWCAAANM5gtnx+lBwQAQCAxskpPTDKYzaYX/UbUXIEvV1mcS755nL72n37kmsBHLh2Pz6OTinpovV09M3HSL3N59TBv1dyukeduu5Zn0R3jm/tj5JW9cuy/v1X5pIvqXfwJfXf/634bidZAQCgcXIuPzacLW7ahJ0IPM+tgz+fU/4H+z75b+Q0rH//3evf/7BaP6UG1Bcf/rf3/j8Wlw3myz+pf44YbttEAACggfJJjTkY8ND/R75H/fJP6p+z94LB4sbBbPmBWr8kfqp1BACAtinlxqjYmXxSjQUPqcXzNoFgMFssh7PF6/e+1w4CAEDr5OujoCFyzqfWL0+N1YHN2wWNf6tAAABomZLKtVHSSIfeLjh7OFteP5gtXh2DjSMAALRNTp+PiibLaZhz/rXhfHndcLY4O0YbQwAAaJsiALTMbVPOZ9UQ8NHoG0EAAGibnK6IijbJ+QE1BNwwnC1fGiM7JQAAtI0VgPbK+VY1wJ3ZhNUAAQCgZdbT8X+OkrbarAbMF9+oQWBnZxsUAABgJ/LJNQj8h8F88dcxsFUCAEA7fTW2tFxO+YF7qwHbPTZAAABooVJKo44o50RtVgM2xwYs3xUDB04AAGijnD8cFV2SyzujOnACAEALrSejX4qS7vjqd7uU9n4SAACgGV4b260QAADa69LY0nYlrVeT0ZnRbYUAANBSJaULoqTlSirnRbk1AgBAS60no38XJW1WytfX0/EZ0W2NAADQZiWtoqKlSsrzKLdKAABotfI/o6CNSlqvp6NfjW6rBACAFltNx/8ySlqopPJfo9w6AQCg5eoksoySNilptZ6Ofz26rRMAAFovnx8F7fKa2O6EAADQcuvJ6Bl1d/KmaGmHr66mo+dEvRMCAEAHlJL+R5S0QEnpnCh3RgAA6ID1dPxzUdJwpZTPryejF0e7MwIAQHds7UpyHL8a1u4W5U7l2PbOcLZs7Sk0V9PRT0R5i9y+5jqa2zeYLS+MsnXW09HpUd6iwXz52lzSfaNtl1zev5qMXxhd4wxni5tSzr19bW+B96wmo38U9U55kAB0yHC+fFPdPGmvo1FK+fpqOr5NdDvnLQCADql7l/86lXRdtDRJTi+NqhEEAICOKSm9JEoaopR04WoyPivaRhAAADomp3RKlDTD9evp6MFRN4ZjAAA6Yjhf/HYq+Rn1lf0OMUQDrCajRs61VgAAWm44W/5Rnfy/Xvfpnm/yb5aSyk4u9Xs0rAAAtNBgtnxBzunJtbz/3ghNU1L6wHoyeli0jSMAALTEYL44s75o/7M6szzCZ/2brnxmNRn/UDSN5AEE0GB1T/81OZXH1Qn/njFEw5VUvryejE+NtrEEAICGqHv4z64vyg8rJT2y7uDfNYZpk1KuXU3HrfgUhgAAsEWb9+5TLnfKJZ1WUr5PfRG+f30lHsa3abOSrltNR7ePrvG2HgCG82WJEgA6oS3L/t9qqx8D3BzAEiUAdET5TNsm/43tngeg5HtFBQCtV0r6YNOP9r8lWw0AOaV7RwkArVYn/7etp6OHRts6Wz4TYBEAAGi3ktYllefVyf/xMdJKWz0IcDhf3Fj/SacfBqClysdXk/EDomm1LU/GJn8AWqhspNd2ZfLf2PIKgI8AAtAudeL60Hoyeki0nWGPHABuRt3lv6puzuji5L+xtRWA4euXZ9QY9cpoAaCRSir/L5f0mtV0/IIY6qTtrQDcVMZRAUDjlJS+VHf7f3M9GX9f1yf/ja2tAAzmy/PqP/b0aAGgEeoe/8V10v+xaHtjeysAJd0pKgDYqTrpX133+F+3moxyHyf/je0dAzBbvCfl/KhoAWCr6oR/ZS7lT1fT8dNiqNe29xbAbHFxzvlHogWAg3Z9nfU/WHL6i/Vk9OIYI2xvBWC+vKRu7rvXAcC++lpJ5ZJc8kdW09GTY4wj2OZbAJ9NOd8zWgA4FteXUq6u288d/pNTvqxO9j5efpy29xbAfPmF+o/dOVoA+qjO4qvp2EnoGmCLv4QyiAKA/npHbNmxrQWAnPJtogSgp+re/2OjZMe2uQJw6ygA6KdPxZYG2GIAyCdHAUAflXRuVDTANlcAbogCgL4p6Sur6ejV0dEA2wsAJX8tKgB6p8yioCG2FgBKLgIAQC+Vm1bT8bOioSG2eQyAAADQQ6Wkt0ZJg2wtAORiBQCgj9bT8b+IkgaxAgDAwSnpXVHRMI4BAODArKajx0RJw2zxLYB0bZQA9EAp6aIoaaDtrQCkvIwSgB5YT0enR0kDbe8YgFwEAIDeKB+Pgoba4lsA+aooAei41WT8gChpqG0eBCgAAPRC+UwUNFiO7VYM58sSJQAdtZqMtjq3cHy2dwwAAN1XymejouEEAAD2zWo6/sEoaTgBAIB9UVL5aJS0wHYDQEnrqADomPVk/MNR0gLbXgG4LLYAdEgp6YNR0hJbDQAl+2gIQBetp6OHRklLbHkFIAsAAF1T0rujokW2HADKp6MAoAtKKavp6NHR0SJbDQDryfhlUQLQCfn8KGiZbR8ECEBXlLSue///KjpaZgcBoHwjCgBarVjVbbGtB4CS0v+NEoCWqq/lX1xNx/8xWlpo6wEgp3xxlAC01HoyOi1KWmr7KwAlfSRKAFqovo5fFCUttpNLNrosMEB7udxvN/gUAADHoPjYX0fsJACUUq6JEoC2KOkrq8n4idHRcjsJADm5aARA6+T0gqjogF29BfDe2ALQApur/a0mo3OjpQN2diCHAwEBWqKUG1fT8cnR0RE7PAiw3BAFAM32qtjSITsLAKVk5wMAaLpSrqh7/8+Kjg7Z3QpALo4DAGi4OvnfI0o6ZmcBYD0Z/1qUADRQSeUtUdJBOzwGAICmKiUt6o7az0ZLB+06AHwitgA0yHo6ulOUdNROA0Ap5c+iBKA5/jC2dNjOL+jgfAAAzVFfkK9cT0Z3iZYOa8IxANfHFoAdM/n3x84DQE2b74wSgF0q5Q1R0QM7DwA5JccBAOxcuXw1HT8tGnpg58cAbDgOAGCXyk2ryfhW0dATTTgGYPM+wCVRAbBlpeTfjJIeaUYAyOXNUQGwTSW9az0dvSg6eqQRbwFseBsAYLsOne3PCX96qxkrAFVJ5aNRAnDQSikm/35rTABIJXsbAGBr8sujoKca8xbAhrcBAA5eKemDde//odHSU81ZAahKKhdHCcABKKVcZfJno1EBIKV8fhQA7LdSblxPx6Po6LlGBYD1ZPTbmwdotADso5LT86OEpq0AbB6g+c+jBGCflFTesp6M/0u00KyDAA9zMCDA/imlfGQ9Hf9otHBI41YANkpJX4gSgBNQ9/yvNvlzcxoZAHIuvxclAMet3LSejO8YDfwdjQwAq8n4hZsHbrQAHIdS0nOjhO/QyABwSEkXRAXAMaqT/2w9HTvbH7eokQcBHuZgQIBjVyf/P1lPR/80WrhZzV0BOKR8PAoAjkKd/C80+XM0Gr0CsGEVAODolFI+v56O7xYtHFHDVwDqAzqlK6ME4JaUcq3Jn2PR+ABQE8C5UQFws8o3VtPxKdHAUWn8WwAbg/nimpyyBzfAdyg3rSbjW0UDR635KwBVnfznUQJwWCnF5M/xakUAWE1Gz66br+11AGyUnM6MEo5ZKwLARknlvCgBSOW3XN2PE9GKYwAOG86W19b/4ztEC9BLpaTXrqejX40WjktrVgD2lFdFAdBPJb3J5M9+aNUKwMZgtljmnE+NFqA3Sir/fT0ZPyFaOCEtWwGocnppVAD9UcqbTf7sp9atAGwMZ4vLU853jxag48r5q8n4idHAvmhlANhwjQCgH8of1Mn/F6OBfdO+twBCSeWvogToplLeYPLnoLR2BWBjOF/cWG9Ca0MMwC2pOznz9WQ8jRb2Xasnz5LyLEqAzqiT/6tN/hy0Vq8AbAxmyy/lnMbRArRbSeespqPnRQcHpvUBYMMBgUDrlXLjajo+OTo4cB15/7y8LwqANvqayZ9t68QKwMZwvvh6vTnfEy1AK5RSrllPx98fLWxNZ46gLyX/pygBWqGU9Dcmf3alMysAG4PZ4v0554dHC9BYdc//r+vk/yPRwtZ1KgBsDOfLr9TN7fc6gOYpqfz5ejL+qWhhJzp3Ep3VZHSHKAEap6T0OpM/TdC5FYCNwWzx9pzzT0cL0ADlhtVk7EBlGqOTAWBjMF9clVO+Y7QAO1NS+XLd6z81WmiEzp5H/9CTrRQnCAJ2q5SPmfxpos4GgPCS2AJsXd0DeetqOn5gtNAonX0L4DDHAwDbV26ok/8L657/OTEAjdP5ALAxnC8/VTf32usADk4p5fPr6fhu0UJjdf0tgENWk9G96+b6vQ7ggJT0LpM/bdGLALBRQ8DtogTYX3W3f3MN/9V09JgYgcbrTQDYqE/QV0YJsC9KSl9cTccnrSfjZ8YQtEKvAkB9gv5Gfbb+t2gBTkwp/3s9GZ0WHbRKrwLAxmo6+oX6rP2LaAGOXUnr+vWMuuf/k3sD0D69+BTAzRnMlhfmnB4ULcBRcRU/uqJ3KwCHraej02uK/2S0AEcWB/qZ/OmK3q4AHDaYLxY55VG0ADfn0vg4MXRGb1cADltPxuPNhTqiBfhbpdy4+fSQyZ8u6v0KwGFWAoBvVSf+j9YdhB+OFjqn9ysAhx1aCSjpb6IFeqvcUGf/c0z+dJ0VgG8zmC+/UO+UO0cL9Egp5cPr6fjvRwudZgXg26wno7uUlK6MFuiBOvFfU/f6n2nyp0+sANyC4XxxWb177hEt0EWbT/bl9PuryfipMQK9IQAcwWC2/EDO6SHRAh1Sp/6LDp0PBHrKWwBHUF8cHlpfJN4WLdABJZWr6+YMkz99ZwXgKAzmi3Nzys+IFmilckNJebaejH4lBqDXBICjNJwvn1lfQF5R7zKrJtA2pVywmo4fGx1QCQDHaDhbXlvvtTtECzRaee9qMn5UNMC3EACOw2C++HBO+UejBZqmpEtW09H9owNuhgBwnIbzxe/Xu+/fRAs0QCnpC+vp6K7RAkcgAJyg4Xx5Xd3cdq8DdqGk9KX69RXryficGAK+CwFgH9QQ8Mm6cbUw2LZSrkg5v3w1Gb0qRoCjJADsk+Fs8fr6QuRsYrANpXx2NR3/YHTAcRAA9tlgtvhcztl7kHAQSvr0ajq6V3TACRAADsBgvjwvlzJNNQnEEHACSkofWk9GTssN+8gEdYAG88UVOeW7RQsck3JTSfntdeL/mRgA9pEAcMAGs+Xrci5Pq3e1MwjC0SjpKyWV16+n41+PEeAACABbMpwv3lvv7kdGC3ynT9WJ/7z1ZPyy6IEDJABsWQ0Cl9W7/R7RQr+VcmP9+pfO0w/bJwDswHC2OLve9WfWe38QQ9ArdU//c7nkN62mo+fFELBlAsAODefLN9WXwifWX4PjA+iB8o1S0tvW0/HPxQCwQwJAAwxnyzfWF8cnpZxvFUPQHaV8rOT0RqfphWYRABpEEKA7yuWp5D+yxA/NJQA00GC2eEv9xfxzJxKiTUoqy/qScv56MnpGDAENZoJpsMF8+bv1F7S55PDt90agWUpKV9Yvb11PR78cQ0BLCAAtMZwtP1F/W/eLFnanlMtKrpP+ZPzMGAFaSABomeF8+Zd185i9DrajlPLh+mLxx6vp+OwYAlpOAGip4Wz50pLKk115kINQH1tX1xeHC1aT8c/HENAxAkAHHLr6YEpPqqVjBThOhy68c1EuddJ35D70ggDQMcP58h2plEf7KCFH4ROlpPesp6OnRw/0iADQYXFegcfXMPC9MUSflfTpktMF68nol2IE6DEBoCc2lyWum5/JOZ22N0KnlXRdfXZfWLfvX01Hz41RgG8SAHqohoEX5FQek/KhyxPfdm+U1irl6yXli+uz+QN17/5XYhTgiAQANgcRvjCXVANBekRtBYJm+2pJ6eO5lItX0/EkxgCOmQDAdxjMF8/JJZ9eywfX3ct7OyXxDhzaq68Tfc4fKyV9ZD0dvSS+A7AvvLBzVAazxbPqZPTgVNLpKZf71IeOSxifqFJurM/Ay+t9emlJ+VP1fr10PRm/LL4LcKAEAE7IobcPUrpfSeW+tb1PTvn7975DneFvqHvvX6zPsivqJH9lHbh8PR2fsfc9gN0SADgwg9lic0KZu9RH2V1zSXcuOd29PuB+oD7svmfvJ9rp0FnySl7W7ZdTzlflsrkKXvrcajp+wd5PADSfAEAjDOaLM3PK31dSOqU+KE+pe851W07Z6/Pt4sdSyeWbKwx1fHPA4m32ur+rlHJN/YH6n4eSv1b/3uujWZecVzWUXFNDyar+2KqUfM1mvP6d19eJ/Zp8Ul6vnjb6nb2fBwAAAAAAAAAAAAAAAAAAAAAAAAAAAAAAAAAAAAAAAAAAAAAAAAAAAAAAAAAAAAAAAAAAAAAAAAAAAAAAAAAAAAAAAAAAAAAAAAAAAAAAAAAAAAAAAAAAAAAAAAAAAAAAAAAAAAAAAAAAAAAAAAAAAAAAAAAAAAAAAAAAAAAAAAAAAAAAAAAAAAAAAAAAAAAAAAAAAAAAAAAAAAAAAAAAAAAAAAAAAAAAAAAAAAAAAAAAAAAAAAAAAAAAAAAAAPZNSv8fmWGmrW5TsqYAAAAASUVORK5CYII=;fontStyle=1" parent="pU3MW7vX4CpFjuoFZaQh-3" vertex="1">
          <mxGeometry x="240" y="440.5" width="52.5" height="52.5" as="geometry" />
        </mxCell>
        <mxCell id="J3Fev1QAeGgDC-BThsLJ-4" value="ACM" style="sketch=0;points=[[0,0,0],[0.25,0,0],[0.5,0,0],[0.75,0,0],[1,0,0],[0,1,0],[0.25,1,0],[0.5,1,0],[0.75,1,0],[1,1,0],[0,0.25,0],[0,0.5,0],[0,0.75,0],[1,0.25,0],[1,0.5,0],[1,0.75,0]];outlineConnect=0;fontColor=#232F3E;fillColor=#DD344C;strokeColor=#ffffff;dashed=0;verticalLabelPosition=bottom;verticalAlign=top;align=center;html=1;fontSize=12;fontStyle=1;aspect=fixed;shape=mxgraph.aws4.resourceIcon;resIcon=mxgraph.aws4.certificate_manager_3;" parent="pU3MW7vX4CpFjuoFZaQh-3" vertex="1">
          <mxGeometry x="710" y="447.38" width="38.75" height="38.75" as="geometry" />
        </mxCell>
        <mxCell id="J3Fev1QAeGgDC-BThsLJ-5" value="&lt;b&gt;ACM&lt;/b&gt;" style="sketch=0;points=[[0,0,0],[0.25,0,0],[0.5,0,0],[0.75,0,0],[1,0,0],[0,1,0],[0.25,1,0],[0.5,1,0],[0.75,1,0],[1,1,0],[0,0.25,0],[0,0.5,0],[0,0.75,0],[1,0.25,0],[1,0.5,0],[1,0.75,0]];outlineConnect=0;fontColor=#232F3E;fillColor=#DD344C;strokeColor=#ffffff;dashed=0;verticalLabelPosition=bottom;verticalAlign=top;align=center;html=1;fontSize=12;fontStyle=0;aspect=fixed;shape=mxgraph.aws4.resourceIcon;resIcon=mxgraph.aws4.certificate_manager_3;" parent="pU3MW7vX4CpFjuoFZaQh-3" vertex="1">
          <mxGeometry x="300.00000000000006" y="447.38" width="38.75" height="38.75" as="geometry" />
        </mxCell>
        <mxCell id="pU3MW7vX4CpFjuoFZaQh-16" value="Private subnet (vpc-mastodon-subnet-private2-eu-west-3a,b,c)" style="points=[[0,0],[0.25,0],[0.5,0],[0.75,0],[1,0],[1,0.25],[1,0.5],[1,0.75],[1,1],[0.75,1],[0.5,1],[0.25,1],[0,1],[0,0.75],[0,0.5],[0,0.25]];outlineConnect=0;gradientColor=none;html=1;whiteSpace=wrap;fontSize=12;fontStyle=0;container=0;pointerEvents=0;collapsible=0;recursiveResize=0;shape=mxgraph.aws4.group;grIcon=mxgraph.aws4.group_security_group;grStroke=0;strokeColor=#00A4A6;fillColor=#E6F6F7;verticalAlign=top;align=left;spacingLeft=30;fontColor=#147EBA;dashed=0;" parent="1" vertex="1">
          <mxGeometry x="650" y="812" width="470" height="266" as="geometry" />
        </mxCell>
        <mxCell id="pU3MW7vX4CpFjuoFZaQh-17" value="Private subnet (vpc-mastodon-subnet-private1-eu-west-3a,b,c)&lt;div&gt;&lt;br&gt;&lt;/div&gt;" style="points=[[0,0],[0.25,0],[0.5,0],[0.75,0],[1,0],[1,0.25],[1,0.5],[1,0.75],[1,1],[0.75,1],[0.5,1],[0.25,1],[0,1],[0,0.75],[0,0.5],[0,0.25]];outlineConnect=0;gradientColor=none;html=1;whiteSpace=wrap;fontSize=12;fontStyle=0;container=0;pointerEvents=0;collapsible=0;recursiveResize=0;shape=mxgraph.aws4.group;grIcon=mxgraph.aws4.group_security_group;grStroke=0;strokeColor=#00A4A6;fillColor=#E6F6F7;verticalAlign=top;align=left;spacingLeft=30;fontColor=#147EBA;dashed=0;" parent="1" vertex="1">
          <mxGeometry x="140" y="811" width="480" height="269" as="geometry" />
        </mxCell>
        <mxCell id="pU3MW7vX4CpFjuoFZaQh-51" value="" style="edgeStyle=orthogonalEdgeStyle;rounded=0;orthogonalLoop=1;jettySize=auto;html=1;exitX=1;exitY=0.5;exitDx=0;exitDy=0;exitPerimeter=0;strokeWidth=2;" parent="1" source="pU3MW7vX4CpFjuoFZaQh-36" target="pU3MW7vX4CpFjuoFZaQh-8" edge="1">
          <mxGeometry relative="1" as="geometry">
            <mxPoint x="778.1300000000001" y="359" as="targetPoint" />
          </mxGeometry>
        </mxCell>
        <mxCell id="pU3MW7vX4CpFjuoFZaQh-36" value="Application Load Balancer" style="outlineConnect=0;dashed=0;verticalLabelPosition=bottom;verticalAlign=top;align=center;html=1;shape=mxgraph.aws3.application_load_balancer;fillColor=#F58534;gradientColor=none;fontSize=23;fontStyle=1" parent="1" vertex="1">
          <mxGeometry x="580" y="307" width="105.42" height="110" as="geometry" />
        </mxCell>
        <mxCell id="pU3MW7vX4CpFjuoFZaQh-41" value="EC2 Instance&amp;nbsp;&lt;span style=&quot;background-color: transparent; color: light-dark(rgb(35, 47, 62), rgb(189, 199, 212));&quot;&gt;Mastodon Node 1&lt;/span&gt;" style="sketch=0;points=[[0,0,0],[0.25,0,0],[0.5,0,0],[0.75,0,0],[1,0,0],[0,1,0],[0.25,1,0],[0.5,1,0],[0.75,1,0],[1,1,0],[0,0.25,0],[0,0.5,0],[0,0.75,0],[1,0.25,0],[1,0.5,0],[1,0.75,0]];outlineConnect=0;fontColor=#232F3E;fillColor=#ED7100;strokeColor=#ffffff;dashed=0;verticalLabelPosition=bottom;verticalAlign=top;align=center;html=1;fontSize=22;fontStyle=1;aspect=fixed;shape=mxgraph.aws4.resourceIcon;resIcon=mxgraph.aws4.ec2;" parent="1" vertex="1">
          <mxGeometry x="320" y="568" width="115" height="115" as="geometry" />
        </mxCell>
        <mxCell id="pU3MW7vX4CpFjuoFZaQh-39" value="&lt;font style=&quot;font-size: 14px;&quot;&gt;10.0.0.195&lt;/font&gt;" style="rounded=1;arcSize=9;align=left;spacingLeft=5;strokeColor=#4C9AFF;html=1;strokeWidth=2;fontSize=12" parent="1" vertex="1">
          <mxGeometry x="453.23" y="565" width="80" height="33" as="geometry" />
        </mxCell>
        <mxCell id="pU3MW7vX4CpFjuoFZaQh-43" value="EC2 Instance&amp;nbsp;&lt;span style=&quot;background-color: transparent; color: light-dark(rgb(35, 47, 62), rgb(189, 199, 212));&quot;&gt;Mastodon Node 2&lt;/span&gt;" style="sketch=0;points=[[0,0,0],[0.25,0,0],[0.5,0,0],[0.75,0,0],[1,0,0],[0,1,0],[0.25,1,0],[0.5,1,0],[0.75,1,0],[1,1,0],[0,0.25,0],[0,0.5,0],[0,0.75,0],[1,0.25,0],[1,0.5,0],[1,0.75,0]];outlineConnect=0;fontColor=#232F3E;fillColor=#ED7100;strokeColor=#ffffff;dashed=0;verticalLabelPosition=bottom;verticalAlign=top;align=center;html=1;fontSize=22;fontStyle=1;aspect=fixed;shape=mxgraph.aws4.resourceIcon;resIcon=mxgraph.aws4.ec2;" parent="1" vertex="1">
          <mxGeometry x="827.5" y="565" width="115" height="115" as="geometry" />
        </mxCell>
        <mxCell id="pU3MW7vX4CpFjuoFZaQh-44" value="&lt;font style=&quot;font-size: 14px;&quot;&gt;10.1.1.11&lt;/font&gt;" style="rounded=1;arcSize=9;align=left;spacingLeft=5;strokeColor=#4C9AFF;html=1;strokeWidth=2;fontSize=12" parent="1" vertex="1">
          <mxGeometry x="730" y="565" width="70" height="33" as="geometry" />
        </mxCell>
        <mxCell id="pU3MW7vX4CpFjuoFZaQh-47" value="&lt;div style=&quot;font-size: 22px; font-weight: 700;&quot;&gt;RDS Replica&lt;/div&gt;&lt;div style=&quot;font-size: 22px; font-weight: 700;&quot;&gt;(PostgreSQL)&lt;/div&gt;" style="sketch=0;points=[[0,0,0],[0.25,0,0],[0.5,0,0],[0.75,0,0],[1,0,0],[0,1,0],[0.25,1,0],[0.5,1,0],[0.75,1,0],[1,1,0],[0,0.25,0],[0,0.5,0],[0,0.75,0],[1,0.25,0],[1,0.5,0],[1,0.75,0]];outlineConnect=0;fontColor=#232F3E;fillColor=#C925D1;strokeColor=#ffffff;dashed=0;verticalLabelPosition=bottom;verticalAlign=top;align=center;html=1;fontSize=12;fontStyle=0;aspect=fixed;shape=mxgraph.aws4.resourceIcon;resIcon=mxgraph.aws4.rds;" parent="1" vertex="1">
          <mxGeometry x="826.46" y="888" width="120" height="120" as="geometry" />
        </mxCell>
        <mxCell id="pU3MW7vX4CpFjuoFZaQh-52" value="" style="edgeStyle=orthogonalEdgeStyle;rounded=0;orthogonalLoop=1;jettySize=auto;html=1;exitX=0;exitY=0.5;exitDx=0;exitDy=0;exitPerimeter=0;entryX=0.5;entryY=0;entryDx=0;entryDy=0;strokeWidth=2;" parent="1" source="pU3MW7vX4CpFjuoFZaQh-36" target="pU3MW7vX4CpFjuoFZaQh-10" edge="1">
          <mxGeometry relative="1" as="geometry">
            <mxPoint x="695" y="369" as="sourcePoint" />
            <mxPoint x="895" y="485" as="targetPoint" />
          </mxGeometry>
        </mxCell>
        <mxCell id="pU3MW7vX4CpFjuoFZaQh-55" value="&lt;div align=&quot;center&quot;&gt;&lt;b&gt;srestrepoj-mastodon.com&lt;/b&gt;&lt;/div&gt;" style="rounded=1;arcSize=9;align=center;spacingLeft=5;strokeColor=#4C9AFF;html=1;strokeWidth=2;fontSize=12" parent="1" vertex="1">
          <mxGeometry x="533.23" y="450" width="198.96" height="33" as="geometry" />
        </mxCell>
        <mxCell id="pU3MW7vX4CpFjuoFZaQh-61" style="edgeStyle=orthogonalEdgeStyle;rounded=0;orthogonalLoop=1;jettySize=auto;html=1;strokeWidth=2;" parent="1" source="pU3MW7vX4CpFjuoFZaQh-60" target="pU3MW7vX4CpFjuoFZaQh-36" edge="1">
          <mxGeometry relative="1" as="geometry" />
        </mxCell>
        <mxCell id="pU3MW7vX4CpFjuoFZaQh-60" value="Cloudflare DNS" style="shape=image;verticalLabelPosition=bottom;labelBackgroundColor=default;verticalAlign=top;aspect=fixed;imageAspect=0;image=https://static-00.iconduck.com/assets.00/cloudflare-icon-512x512-c1lpcyo0.png;fontStyle=1;fontSize=22;fontColor=light-dark(#232f3e, #ededed);" parent="1" vertex="1">
          <mxGeometry x="572.7099999999999" y="60" width="120" height="120" as="geometry" />
        </mxCell>
        <mxCell id="pU3MW7vX4CpFjuoFZaQh-42" value="&lt;div style=&quot;font-size: 22px; font-weight: 700;&quot;&gt;RDS Primary&lt;/div&gt;&lt;div style=&quot;font-size: 22px; font-weight: 700;&quot;&gt;(PostgreSQL)&lt;/div&gt;" style="sketch=0;points=[[0,0,0],[0.25,0,0],[0.5,0,0],[0.75,0,0],[1,0,0],[0,1,0],[0.25,1,0],[0.5,1,0],[0.75,1,0],[1,1,0],[0,0.25,0],[0,0.5,0],[0,0.75,0],[1,0.25,0],[1,0.5,0],[1,0.75,0]];outlineConnect=0;fontColor=#232F3E;fillColor=#C925D1;strokeColor=#ffffff;dashed=0;verticalLabelPosition=bottom;verticalAlign=top;align=center;html=1;fontSize=12;fontStyle=0;aspect=fixed;shape=mxgraph.aws4.resourceIcon;resIcon=mxgraph.aws4.rds;" parent="1" vertex="1">
          <mxGeometry x="320" y="888" width="120" height="120" as="geometry" />
        </mxCell>
        <mxCell id="pU3MW7vX4CpFjuoFZaQh-67" value="" style="shape=image;verticalLabelPosition=bottom;labelBackgroundColor=default;verticalAlign=top;aspect=fixed;imageAspect=0;image=data:image/png,iVBORw0KGgoAAAANSUhEUgAAAw4AAADZCAYAAACJkWdHAAAACXBIWXMAAAsTAAALEwEAmpwYAAAgAElEQVR4nO3d3XEayfv28auf+p3LG4HYCKSNQOOaAKSNQDiCZc+pMq7i3DgC4whWCmDKowiMIjCK4C8i6OegGxtj5oXpeYXvp4ryriRmWjAa+u7u+25jrRUAAAAA5Pl/XTcAAAAAQP8ROAAAAAAoROAAAAAAoND/um4AAAyRMSbN+NbSWrts6JzXkhaSbvyXXiRNrLUPNZ4jkvRG0vXOl1NJstamdZ0HADA8huRo4HwYY8aSxhnfnlhrVxWPm2Z8a2WtnVQ5Zt8ZY7Junh+stbMGznct14G/OPDtv6sGD8aYkaQ7ueviqsRTniUtJT1Ya9dVzgkAGCZmHIDzMtLP0ep9bwKOm3VM1Gemw0HD9ntHBQ7GmDdysxf3R7bjStJHSR+NMV8kzQggAOA8kOMAAMMQ5XyvzEzBD8aYO0lrHR807LuX9N0Yc5KzSgCAXxE4AMAZMcYsJP2n7NmLKj4aY5Y1Hg8A0EMEDgAwDGnO957LHMB37v+pozEH3BM8AMBpI8cBAIZhIrdc6dBMQeFSIb+cqOzSpCdJK0mvcnkxI5XLY7k3xqybSA4HAHSPwAEABsBau/alUmeSbv2XHyUtisqk+opMHwtOsZFLll5Ya18PHOONXPWlhfKXOb03xjxUrdAFAOgvAgcAGAjfGb+r8NRlwfefJUWHAoadc79KWhpjHuSWTeUlZC+Un8wNABggchwA4IT5vTvyOvmFQcMu/3OR8vMqbvwsBwDghDDjAKBzO5uQ3cntWLy/FGa75n4ZsEndWK7De63DHelnf45UbnOzUh3pEueN5DZXiyRd7nxrs3OuZc5zoxKnSXOWK+XlP2x0RNCwZa199SVdV8petjRR9maDPzTx3vtjHjr3ev+1PvAap9baNOcY8m1Z7xxjLNf+SL+2/1nuPa583QJAr1hrefDgcSYPufXxNuMRBRw365hpwfO2m5BlPf/gMSWNjmjbRC7J95hzvPrX6k2F33m287stS55vJen6yPfrt3MeeP51wfPGDV5P64Lnjvx7eex7X3idynXgc69HuaDg0HUxKzjGj78V/x6X/R1SHXHd8uDBg0cfHyxVAtAJv5Ql1fHlQW8krYqWwhhj3hhjUrmk4GP3LLiQ9F5SGrDk5kHlqxhd+XONKp4rS14+xIvNmOk4wv7zXyR9kfRv3rn9CP13Hb/j+I2kr6FlX40xM0mfFbCXhU8WT1X+dyh13QJAn7FUCUDrdjpdVTtuF3Id7chmLwFZ6viO6b4fHXpbfjnPq++YHnvuC7k2R0c+L0/esR5CD25dpad/5UbuU7uzfCeL7/SXDaiy3PsOeHTE+7I9fyQXFFZm3VKmVEfu2K1y1y0A9BYzDgC6sFR+0PAit7Z9k/Mz2472b/yI9u2h73kbf/ztI8+Fjutkv6p6x7TupOK84CU4cJAka+3CWrssGTQcs5dEkSu5ZW7HeFWJPS+K+OuralB6IenBB88AMCjMOADYWhhjakkIzuM7xlmd+me5dfernZ+P5AKEywM/f2WMubPW7neC8zqH/1prf+lw+k7cRNkd/hs/SpzmHPfQuTdybU/1czO1sfI7neOdY6z1a2BTurNa1DEt+bvUpuReEs/6NaDJu1YkN/Ow2n8/c7wqPHB51u/X16NcnsrWnfJnIy79MWaBbQGAVhE4ANg6dtlFVVmd+oNlQf2ykDtJ3zKeN9bvo+dZv8unQ51Mf86ZMWYtt/Y96zxpxvcOnTurzOmyYLlOtNOupXZmVYwxtsT5t/JmLvJmcpqS17nfyAWMv82C+IBjqez3dGaMWZZcslTHbMduO34LdHfaFMldl5lVp4wxBzfbA4C+YqkSgLZldWhnWZ0o3zH7kvG8aPd/Cpb65C7P8R31/f0JnuVGlNO85+55Uc76e2vtWNmd9zYCuFbX1/v3JG+2JDoUNEg/3vtI2ftGXKhE2dcDXiS9k/SHtdbsPGZHPD8zV8HP6ETKfp8vVG0zPwDozOBnHKZxEklazZOYURtgAKy1134ZzbaDH/mvF625X2d8/ZgE64mKA4CJXJnNdUACa2YQtCNV/jKcU5K3dOxD0ets3b4RE0lfM35krOPyHY7a9C7rnEXPt9aufKJ81hKtOxXv6g0AvXEKMw6RpPU0ToIT3gC0w1r7aq1N/WOWNcrrS6reGWMWyhlV3i1jWtAJvTXGpMaYcVbpU9+mh4CgYVOyzOk5VdWJcr5XqsPvR/CzZh2ujixlexcYNDyXzRHxS+OyZh2igDYAQOtOIXCQ3Ijjx2mcrP0MBIABMsZc+0790ucb/J+k/+T2ejiUHL012vv/rA6m5JbMfJb03Rjz6gOJhTFm4telhxpCQBBapvZYWe/d45Ed+GXO90Ylj/FYpgJUgWMrUmX9/AXVlQAMyeCXKu25lPR1GidPksbzJF533B5gSP5V9U5v1hKSQj7xefuovCHXnplcwFHkQq4T/aMjbYyRXE7DQ8UN0tYVntOE3PfSGPOmjcTcgmDs2Ost7+cjlctDqSOwK3OeXeuc7203QgSA3ju1wGHrRtL3aZx8kLQg/wEoZVW1RKfvbB/7nLFcBz9vJqESa+2DMeaLqlfRuZVb1jSTW8ueHvHcdcVz1srnBWyUHYxFqmkvhwBd3JvTDs45hFkoACh0KkuVsryXy38Yd90QAI7PW0jllguVDRqelb/86De+ctGHoxr3u0tJX32QM0R5HdZaKvr4ZWXWGLP2y74ejDEzn8xc5FwGdc7l9wRw4k49cJDcaNvnaZyk5D8AvbBU8Rr7J7lO/1u5cpnXqjA67pOu/5T0Sa58ZlWLI5Nv+yLvNburaX39NgC5lHtfb+UGbcoEJqMazj8EUdcNAIA6nEPgsHUjl/+wnMbJqOvGAOfIr3fPKkG60c+6+pGvtpSGrsO31q6ttRNr7UguiHgnF5Q8qXwwcaH8kqJ9lRc4BP9OfiYmaynUau/fQ0ZHnjLv59tcDpS3V8gheQHaOqAdANCqcwoctu4lraZxMuu6IcAZyuuoRtbasjsAV+KDiKUPSiIfTPwhN7PxSfk7Kh/bWeycrx70lPMj7ws2zMvkZytmOT+y9G14VX3lSPN+fn3ksUJER/585uxLDRWeAKA15xg4SG6E7L0v38rOnUB7sjqpTyX2Taj8t2qMibLyFHb2lJjIjWhnzUK0XcK0LrOC7z9UXLK0UHaOysve+5k183FZNn/ELxXLSnbfP1/TbssuXfOzbFmvU15QBwC9c66Bw9alpP98/sOo68YAZ6BSBSXf+boq+bMjvyfD0hizMsZYuXKxn4s6e350fFmljX3lK0LldVAvJa3Kzjz45Pal8itWzfb+P2/J1Kxk4JK3UVwX1aGWRT/gf6+8n+u6qhUAHOXcA4etbfnWxTRO2IwHaN8o6xu+81Vqd+GdY32U69juBxvLgLYcVdWpZUWJzmPlL8O6lPTNB1sHAwgfMIzlcgnygobn/f0vrLUPyp7JuZSU5rXfBypZuTHScddHXW7863Ww3f7rqfKDZQIHAINC4PCrf+TKtw4xCRIYgqzO9+WhTpifaUj1MwDI6nwufAnQkR9hz1xu5MuFjg5903eMszrFfa7FfyW35GjmH9HuN/06+jL3tXu5AGJbWnX7WMnt4l1UQncjF6Qcknf+K0lrv4N35IOUyM8crZUfqHzqIE9ge33dy83WTPbaPZPLucibJftCfgOAoTnVDeBCXEj66Pd+mMyTOO22OcBJSZXdmbqXdG+M2S6rGen3TupSrtTnviv/SOU6bAu5WYdDtpu7PepnMPBGLuE1r6O3zPleH/yyA7b2Njqz1i79Rn2fSxzrUtWWlU2ycg1KbMp3ITd4888R53tWcQ5HE2b6+TpeKvtay7JRN+0GgCAEDtmu5Mq3PsoFEOuO2wOcgoWKO4ZZScifVLJyjrV2YYy5yzmW5AOIMseT9Fh1V+2a5e0EXejI4OFY7/aXKB0wkUuQL5WvUmAjt6t3F5urreSClqq/x4TZBgBDxFKlYrfy5VvJfwDC+M7SuwpP3Y4sH/M3eKd6qtY8K3v5TduC18T7zv1bhW2It+tF0tsSQcM2+TyS9Bh4zme58r1dLR97o+K8kSxlAiwA6CUCh3Iu5JZHrPwSJgAV+U7TO5XvdD3KdRJf5TrOpZ7ny6xGcpu9VengSW6WI+poVPuQiWpI0vazJ9cKe202/vnXx8zG+PflTtK/Fc/9Qd0GDZIkf/5I5X+HjaS/CRoADBlLlY5zKenzTv5Dn5MlgUPWyh6FD+kcZx0za7370hjzINcRvtPhJR+Pkha7nVJr7don/m73XNj32+9grZ0ZYxZyI8RFy5ckN4L+4M+9zvm5rN857zn7P3fUjIi19tX//mPl72tR2AYfDM3kyqFujxepeCnUo9zr8xASUPnlZEt/3rHy35dnf85lySU+r2rmOv+FtXblE+0Xcr/HodfuRS4/ZtGjABQAKjHW2q7bEMTvAH0oWbINX+QCCD4MgEC+AzaStGq6g+VLjh5a9tT4uftu533Yt256Xf5+NSivk/fEt+VrxrffHpplOdD+xl8zAGgTMw5h7iXdTeNkNk/iLuqIAyfDd7DWLZ2L2cIMbb4PB86ddnHeugy9/QBQhByHcNvyretpnERdNwYAAABoAoFDfS7lyrem0zgZdd0YAAAAoE4EDvW7kfSd8q0AAAA4JQQOzXkvaU35VgAAAJwCAodmXciVb03JfwAAAMCQETi040Yu/2FJ/gMAAACGiMChXfdyu0/Pum4IAAAAcAz2cWjfhaT3PvchmifxutvmAAAOaGX3aQAYEgKH7lzK7c667rYZAIB9fpPAqOt2AECfsFQJAAAAQCECh54hebofeB8AAAB+xVKl/llO4+RV0oT8h/b5gGEmt4ws6rApAAAAvcKMQz/dyldfYvfp9vhqVyu56lcAAADYQeDQXxdyu0+vpnFy13VjTtk0Tu6mcbKWe70vOm4OAABAL7FUqf8uJf03jZMnueVLq64bdCqmcXItaSG3QR8AAAByEDgMx42kb9M4+SIXQFBHvCK//Gsm6Z+OmwIAADAYLFUanntJ62mcTLpuyBD5120tggYAAICjMOMwTBeSPvpO8HiexGnH7em9aZxEcsuSrjpuCgAAwCAROAzbpaSv0zh5FOVbD/LlVRdylaoAAABQEYHDabiVdDuNkw+SFuQ//MhjmMhVSgIAAEAgchxOy3u5/Idx1w3pkv/9VyJoAAAAqA0zDqfnQtJn33menVP+A+VVAQAAmkPgcLpu5PIfTr58q1+WtBA7PgMAADSGpUqnb1u+ddZ1Q5rgf6+1CBoAAAAaxYzDebiQ9N4vX5rMk/ih4/YE8+VVl3KVpQAAJ8YY80bStaSRf4RKrbVpDccBzhaBw3m5lPTfNE6e5PZ/WHfcnqP58qpLkccAACfHGBNJGkuK1MzAUNrAMYGzQeBwnm4kfZ/GySe5BOre5z9QXrUe/kMZv3q11q66bgRwzowxY0kzMYsM9BqBw3n7R9J4GieTeRIvu25MFr/EaiG35AphvnbdgB56khvdBNAyvxzpQcwiA4NA4IBt+daJXP5D2nF7fvB5DAtJVx03BQBQMx80pOIeDwwGgQO2ruTKtz7KBRDrrhri8xhmolISAJwkggZgmCjHin23klbTOJn5vIJW+fKqKxE0AMApm4mgARgcAgccciGXhLyaxsldGyecxsndNE7W/rzkMgDAiTLGjORy7AAMDEuVkGe3fOtknsS1V56Zxsm1XB4DiXEAcB5mXTcAQDUEDijjRtK3aZx8kQsggsu3+mVQMzHqBADnppWZbAD1O4WlSr3fg+CE3Eta+wpMlfnnr0XQAABnxe8lw3JUYKAGHzjMk3gh6Z2kTddtORMXkj5O42Tty6WWNo2TaBonK0kfxQcHAJyjqOsGAKhu8IGDJPnNy0aSPnTbkrNyKVe+9cGXT800jZPRNE4e5DYfo4oGAJyv664bAKC6kwgcJGmexK/zJJ5J+lPSY8fNOSe3kr77Mqq/8V//7n8OAHDe6ijz/STpb0l/WGvNEY9ZDecGztrJBA5b8yRez5P4TtJbSS9dt+eMvD/y6wAAHOvJWhtZax+steQ4Ai07ucBha57E6TyJR5L+FfkPAAD0QWjp7aDiHADCnHw51nkSL6ZxspTbK4DdiHHunlo6z0guDyZEW22tfX8SAI3YWGv5ewU6dPKBg+TyHySNp3GyEJuN4YxZa6M2zmOMmSlwmVpbbQUwGAQNQMdOdqnSIfMkXs2TOJJLqiL/AQAAACjprAKHrXkSP8iVhPsg8h8AAACAQmcZOEi/lG+9FuVbAQAAgFxnGzhs7ZVvfe66PQAAAEAfnX3gsOXLt15LeieWLwEAAAC/IHDYM0/ipVwpyU/dtgQAAADoj7Mox3osX7514su3LkX5VgAlGGNGcgMPkf/SG7k8qq21f0iutOSrtTZtoWkYMGNMJHddjfyXruWura3U//sqd12trbXrVhqHg3buBbvvVbTzI9v3Svp5X1ixG/YwGGOu9fP9lX59b9f6eZ9P1eLfozFm+5mzbc/u9bffrkrXG4FDjnkSryVF0zi5k9v/IXRDKwAnxHcOIkl3/t+Lgqf8NghhjJFcflUqKbXWPtTXwvJ857SK16qbcuWcM/eY/kP7Tdb3c4S0NfOcdQd/xpjt9RRJuirxlEPX1Yv8NSXpockOacD7caw3Va/TpgN0fy/Yfd+K7gWSdHvgONv37UHuftBJINGz+0Hu+xd4/ZVur2/fWO59znt/d/8e3/vnvsi9p4u6gwgfLIz9I+9+UUu7jLW2SjvP0jROZnLb3Ze5IZTxdp7E6d45Ug10hmOexGb/a9M4GeoF9uT3/EAFNW0A99v11BfGmLHch8dvH/w12Ojnjby1Da+MMVX/Vp/KbNa307G6kxsFy7uP5h7TGJOq2n3y2LZGKtEJrONa9Z2fiYo7JVV9kbRsogMd8H60pon7yREdthCPcu9bqwMKLd4PIgX+jQVef4Xt9QHDLOAcv51T0iz0b9FffxPV1y99kjQp+twhx+EIvnzrSO4GDODMGGPGxpi1pM9qJmiQ3AfAvaRvxpg0YOSvF4wxkf9g/y7po9yHbxMd42DGmJExZqmfbb1Vw201xlz71+eb3Pve1PnuJX09hWuqa8aYN8aYhdyyj49qLmiQ3DX4nzFm7QcsBq2Lv7Gq/Pv8IOmr6g2Mb+T+FhdVD+D/hldyA3R1vX43cp87ue0icDiS3/9hLFe+9anb1gBog+/8ruUChjaXLG4/YFI/Qjco/gOo7g/dRhhjJnIfxPctnW/b+fymdl+fH50WP2KJkvx7NpMLGP5Rux3eS0mffQARtXje2vjX7rta+hsL4WcAUzU3QCRJ/xhjVsf+HfoA8qua+yzKbReBQ0W+fGskyrcCJ2unc9fkTbqMG0kr37ntPf+6reQ6V73nR0A/qqWOoO+UdP36/CN3TV0X/iSaGuGt4lIu8HsYSuDn7wdLBS5fbctO0NDkTNLWlaS07Hvpg4bPjbbIyWwXgUOgnfKtH7ptCYA67Xx49KXzeyHp40A6DKna+dAN5js0rY2A+g/+b+pHsY1Luc7BuOuG9JkfKe968GDfraShzD4sNIBZBulH3sCD2g0Or/SzMlqmFoOGrYPtInCogV++NJP0p1wiE4AB8x/GqfrZ+b2V6+yNOm7H1i+JdL4j3sfX7Td+BqftoKHND/4yLuSWwIy7bkjf+JHyVP0dKb+Qm30Yd92QLD7oGkTQ4C3VTYB45V+rg/xAVuWciAC/tYvAoUbzJF7Pk/hOLv/hpev2ADjezvrRXibseVfqzzKTH+UifRnRQXQSfOA1a/F8Y/UvaNj1eSCj163wI8+pBpCfI/feLbtuhLd7P4jU36Br68fAh/8bbTKnocj7nAGhpbr7THq/+1lD4NAAn/8wkvSvyH8ABsN/0PW5c7frQv2aeZC6GRE7xm5N/KXazWkYwnX10LPrqRM7QcMgZs68+54ED7szkLOuGnGEV+nHe96H+9ds/wt+ZrTra/HHa0Pg0KB5Ei9E+VZgEHznrpPN1wJcyHX2usx5WEs/Ruv6tAb8kJX0I0BsZSR5Z830EFzIBVRna6BBw9Z9Xwoo+PvBEGZr1v7fOvfoCnG/G7z763HWVWN23GxnHQgcGrZTvvUvUb4V6KWOEuLqcqVuO3tr/++swzaUtZ1xGLd4zpn6H1DtuunzmvkWLDTMoGHro18y2JXU/zvusA3HWO9spNYXu20Zqz+fSxOJwKE18yRe+fKtf4v8B6Bvlqq/c7eRGyx4kqu69uj/u4m//9sORxpXfgR/CJ3jbW3ytvZqGKmeqlwvkj5JemutNfsPuby6f1XftXWWezy0nSzfoGWHS85e/cj0EGYb5Hdvbmq39qp2A78+BTR3EoFD6+ZJ/CDpWq4j8Vrw4wAa5kfn6kqI28h18P6y1r6x1kb+MbPW3vn/Hkn6Q24PmDpnIWcddBY21tpXDWh0Ue3PNoTYSPrXWjuy1k58J+c31trUWrvw11YdewtdaDjvaS18Z/djA4feDiB8kAvu3vrHB7l7xXMD5+xsyZm1dqXhXDvb175M5/yL3N/WX3tB+59yA8J1Lkm/9DtsX6t4QOZF7lp6K+mPhgcULowxd/+r6WA4wjyJXzWMaX3gpPlR1WVNh/sgaeE70rn8zyzlRgYjuftB6AjdhdwyizaXKWwTIbtcGlHWxlq7bmsZjg/iQkavnyWNfUesNGvt0m++lypsFHWi8smiS5WoQ++FVtlpas+kuhNjn+TuB1n5Len2P/x9aCz3mtc1c3djjJlYa9tM+N12xIdwP5BcqdGV8pemfZI0y7qvW2vXcgMSD75s6UPB8cp6kJQ36/cid39Is37Afy+Vm0GcyH3OhM6sRAQOAM5ZHQlxG0l3eTfwPP55kf/QCe1U3RpjoqptqeDGf/D2aZo/y0WJTkKdxgHP3V5T6ypPttZul4+lqv7eXBpjrssELtbaZdmDGmOCrnFr7Szk+YfUnMhb2KHb5zulC9XbwZPcLOSyzGBGTbYd8SEsW9zKuh+8yP0Nlg7c/d/rtTHmQeGz2Hn3qS/W2vExB7PWLvyeJKnCrq1rlioBOEs1JcRtJNXSUfcdonehx1H7s5lDSiRts60ho66Vg4Yt3+EJHW0eBz5/KGY1HedR0nXI/cDPEESqZ3nJhdpfIz+k+0GWZ7n38ajZvh1jNZfL+u7YoGGrpmVkN8w49M9Ybtp3EIlFJ+pJ/UpIQjNCZxu2QUPVD5ff+GUmI4XNPNwYY0ahHc8GvMiNdq20t9v0AV3nf23klgqsVX4Jzg/+PazagXqqccZoobDrPKqpHb1VYxnho0eBs/gZo2vVUxZ2YowptYSyZcfcD9r0Indfr/x6WWtf/Qxy3Xu3fDpmdu8Qa+2DMeZJAX1MAoeemSfxWlI0jZM7uZv+kKb8hu5F0sQnsOP0jQOfP6kzaNiy1s58wnZIh2Gi/gS/j3JrvdOuG1JC0br0sqKA584Cz/2D78A8qHquxZUx5k0PO511mtVwjMe6goYt/97dyXWqQwY4trMOszraVYMnuZyBtOuGZBjXcb37QaCZ6uvDPVlr67qnLxQQOLBUqafmSfzgd5/+IHafbtpG7nW+Jmg4D/4DOeSG/hQ68lMg9ANiXEcjAm3kyodWzv9o0bZ6UVRD0CC5GZNtKd5jvDTwWoUe77qORvRRTWWEX9TQ35ufNawj0XhcwzFCbST97f/G0q4bk+FTzW2rsz9R20CQv8dV7lcSOPTcPIlncjdudp9uxhe5gGHmq13hPIR+GM/qaEQW/+EVUqr1wneKuvIsadTjDsKu7ZKz2qrPWGsfdkrxbksj/qWf5RE/yN17nvRrOc60rjbsWAc+/2QDB9XToa5lhDqL/xsK/fy/7HhTuO3fWJ8H5jaq/75e14z0lwZmtysfj6VKA+CXL42ncbJUPWUb4T6sJ/MkTrtuCDoR8iFa5xr0PEHTyXK/Y1pPU46y7SQMJRCvNU8ly8450qyf6XDTrjynvBFcaGe6rXvBTOEb092p3hHwsmrPBWvIQwP3rHVNx2mipO5KFT9fmHHomWmcjLK+N0/i1O8+XccGP+dqI+ndPImvCRrOkx+JD1kzvKynJflCp5PVXWLr3YCChg996tD0MKH9ZNVwH5Bayhvw10XorEMU3pJKGskFa0ATnfM67oPPDb1+ldtG4NA/y2mcPBQEEEtJIzW3Ec6p+iRp5F8/nK8o8PltjtqlAc/toixiWyOwdXhpYk+APjDGXBtjxsaYpTraQXgAosDnN5GPkie0Y3vpKzW1qelcsLpsGip0Uccxe7e8i6VK/XQrV1lpIWlxaO39dvdpv3xpKZYv5XmSNPZLvoAo4LlPLY+mpwrYSKjlzeCk/lRuKWPWdQPq4kfPI7l8hEjD2JCva1Hg85c1tKE0X6L1WWEDApHaLX3a5q7VIdKuG5Aj7boB+wgc+utCrpb7eBonmSVCd8q3RnI3Msq3/vQiFzCkXTcEvRIy6tb2lHvo+UZ1NKKktkdgQ/VuJK8Mv3FhpJ+BAoNG1YS+bl1cP6nCAoc2Zxw2PU+G3tXnpVS9axuBQ/9dSvpvGidPcsm8By8i3zkeTeOkzu3qh2ojN1Mz67oh6Bff6Qr527hrebo/NDF1VEcjShpKJ0Fqf+aoMn+9bWcSIjE4FKyGJPRGlraUkEr6J+D5o3qaUcqQ7gdp1w3I0sf7FIHDcNxI+jaNky9yAcTBi2mexAu/fGmh8CoMQ5T7+uDshXb6LzWsjtuoxXOlLZ4rVNp1A7L4QCHaeZzzIFBTRoHP72oUOA18fpuDHr0bKR+gkJLcjSE5enjuJa39zMJB8yR+nSfxWK5ueC8vvAY8SXo7T+IxQQPww6jFc61bPFeo3nRqjDFvtonMxphXSd8kfZTLbSFoaEZoB7qT66eG0ec2r6fe/I2hXsw4DNOFpI8+eMhcw++XNUXTOBnLLQSZV8IAAAx4SURBVF8a0khpWS+SZlRKQklR1w04VQMpubjV+eCCT2gey9XXJ0BoV+gSwC6vnycF5GcYY0Ytlf0d0v0AR2DGYdguJX0tWb71Wq586ynt//BBbtfnZdcNATAo665ObIy5M8akkr7KzSATNAzPuusGBBi1cZI+rs1HPZhxOA23km6ncfJB5cq3LhRQ4rEHHuXyGNZdNwTA8HSx0ZrPXQjdDRz9sO66AUBXmHE4Le/l8h/GWT8wT+L1PInvJL2V9NxWw2ryIpfHcEfQAGAojDEzudwFggYAg8aMw+m5kPR5m9eQk/+QSroeSPnWjdzvMpTNZABgW/53qW5meJ/lqvC8yg0qAUAwZhxO141c/sNyGieZiWC+Mz6S9Kmthh3pk6QRQQOAIfFBQ6r2goYnubyvt5L+sNZeW2sn6nHp2QEbdd0AoCsEDqdvW751lvUDvnzrRNKf6k/51idJf82TmD0ZUCeuJbRlobBdfvNs5HK9Pkh6a6011trIWjuz1qYkpjZu1HUDAqy7bgCGjaVK5+FC0nu/fGkyT+KDOzr6vIFoGid3ch96XZRvfVFOG4FAlAhE44wxE9W/Aeej3OxBOrDSt320Dnx+aDnXEEF5Ml0UBsBpIXA4L5eS/pvGyZPc/g/rQz/kO+0PfpZionbyHzZywcrBqlBAT7y11qZdNwL95ZcozWo63JOkpbV2WdPx4KwDn9/mDsw/GGNGgYc4pXLs6AhLlc7TjaTv0zhZFOQ/zORukF8abs8Xuf0YZgQNaFINnf5RDc3AaatjsOVFLkiNCBoasQ58flfVsQa54zVOC4HDeftH5cq3juUS7urOf3iWK6+aOfsBNOAl4LmjuhqBkzUJfP6zpGtmtprjl+sEjb77fTnaFgU+n8ABwQgcsC3fuprGSZT1Q/MkTudJHEl6p/Dpzo2kd/Mkvs4qFws0KOTDM6qrETg9xpg7hc02vEiKak5u7nI9fp+FdqLHdTTiSHeBzydwQDACB2xdyZVvfZjGySjrh+ZJvJQbdf1Q8Tzb8qrLis8HQqUBz73xa9iBQ6LA508aqIjUyXr8AUgDnx/aiT+Kn+EILViS1tAUnDkCB+y7lbSaxsksK//Bl2+d6bjyrU+S/qS8KnogDXx+qx0GDEpIJ31jrW2imlzUwDFPQRr4/EtjTFRDO8oKXQL3QkUl1IHAAYdcyO00uvKlWQ/y+Q+RXP5D1rrxF7k8hog8BvSBL2UZkucwrqkphYwxE2NMVEM1FbQjJGm29mUkfnasq0TeXvM5JKHLbmfhLSnm//5DByzS4IYAohwr8u2Wb53Mk/jgB5vPUxhlfO/g14GOPcgVB6jixhgTNZ286kczP+78v+Rm7tb+kUpaM4p4MtYNHJPZsXwPCttvo5V7gVyAElqpaxneDIAZB5RzI+nbNE6WeeVbgQFZBj5/VkMbqpzjRq6j817SV0nfjTHWGJMaY5bGmBkzFN3oqMpOkVnXDei5ZR3HaDLvyQ8ghG4m+EKVLtSFwAHHuJcr3xq61hLolF+u9BxwiBu/O3AjfHWeY5aY7AcUywaahXyhncdRHY3YMsaMFZ5Me9J8Zzpk2aLkXuNlcGMO8AFJHXkvyxqOAUgicMDxLiR9nMbJOq98KzAAi8Dnf2xilNl3FpaBhwl9PtpX27XkZ5xCr+9zMavhGLfGmGUNx/nB3wdShS9R2ohrATUicEBVlypRvhXoK78jb+hoY1pn8FBjZ6GJ6jzIF5rcfOFnCYLsjFKHXkNnoab7gCTd++WCwcuW/D0llSuTHmrRQIlfnDECB4S6lfR9GiezrhsCVDALfP6FXPAQnIS6EzSEdha+0FFoX02v+SKk41njNbQrqvFYfVXXssN7uftBVPUAfglkqnreQ2YbUDsCB9TlfdcNAI7lRxvL7kWS5ULSf360cVTlAD7wWKmezsKshmOgmpC8GelnIHp08OA7q2vlX0NVyo/eGGPGPul++xhVOE5v+f0zQu8DW1eSvvqCBaUGFIwxb/xrvJarpFbXbFETGwrizFGOFcC5m0j6VsNx7uWWK3yR9FC0mZfvfEX+/HWNEH+hPGun6gj+riStjTETH9jm8p3TiYqT6Z+stZExxlZo0+e9//+g0wtQx3LvX12d9hu5oGsjN4Ow8o9tR/5aLqE+UjN7bTyVuX6AYxE4ADhr1tqVMeaD6ps12wYQ0s9RzNT/O9p51F3xZqPT68wNTei+AFsXkj4bYxb62elc+8e2w3kt1+ks29Gd9bRkbC9Ya9d+mdB+kBTqQm5J723Nx82zUYsbVeK8EDgAOHvW2plf6lH3yN/N3r9NWjDb0C1r7YMfYa5r1LquTueTtTatI/n6lFlrlzXtm9C1MfcCNIUcBwBw7hS+Rr0rT9baWdeNgKR+JqOO/b+jDtswCNbasYZ7H5Ckd0XLJIEQBA4AoB9Vce5ULYG0Sxu5dqMfFurXNfSB0eejRRpm8PCFvAY0jcABADzfwYrUr45fno2kiMop/eHfi3HX7fCYiarAv4eRhhU8fPKzJUCjCBwAYIe1diWXeNr3TsM2aAjdeAw180tFvnTcjGcxE1XZTvDw2HFTynhnra1rLwogF4EDAOzZmXnoa6fhRQQNveZHf7sKHjZyCbL7M1HMTB3BWvtqrb2TKz/bRxtJb1mehDYROADAATudhn/Vr6VLj5KuCRr6r6Pg4VnZ1wdJsxX45V5v5QL2vniUNLLWpl03BOeFwAEAclhrF3JLl7qefdhI+ttae0dOw3D44OGd2gk+H+VmotYZbVmr++t4kHwH/Vpu9qHLgYQXcR9AhwgcAKCAtXbtZx/e6uembm3ZyHVWRpRZHCa/lGSk5mYfjulMjtX+NXwS/CzkTC6A+KJ2A4gXuVwG7gPoFIEDAJRkrU2ttZGkv9R8x+FZbqR6ZK2dMbo4bL7TOZb0p6RPqmfZy9GdSd+OSO7aYvahAj+QMJYLBv9Vs4UUHuWCwhG5DOgDY63tug3YMY2TVO3sMlu7eRKbrtuAfjDGjBS42dRQ1u4aY+7kEqkjSVcBh9pISv3joe3a+37H3MrafL+MMdeS3lR9fl+uLf973MmNYF9Luix4ykbSSj+vkVryXCr8va6rXp9Dus6O4V/DO/18P6vuHv6iX+8DnQwYDOl9Cr0fSFo19ToHvo6vTeWyhXxGEzj0DIEDMFzGmDf62Ql84x/XB3409f++ynUEG/vgwrDsXEO7GutAoBk7ndnIf+lQ53Yldw/gPoDB+F/XDQCAU+E/9FP9DAyAo+xcQxiwnUAv7bIdQN3IcQAAAABQiMABAAAAQCECBwAAAACFCBwAAAAAFCJwAAAAAFCIwAEAAABAIQIHAAAAAIUIHAAAAAAUInAAAAAAUIjAAQAAAEAhAgcAAAAAhQgc+mcs6anrRgAAAAC7CBx6Zp7E63kSR5L+lvTScXMAAAAASQQOvTVP4od5Eo8kfZC06bg5AAAAOHMEDj03T+KZpGtJXzpuCgAAAM4YgcMA+OVLY0lvRf4DAAAAOmCstV23AUeaxslY0kLSRcdN+cU8iU3XbQAAAEAzmHEYoHkSLyWN5PIfAAAAgMYx4zBw0zgZSVpKuum2Jcw4AAAAnDJmHAZup3zrW1G+FQAAAA0hcDgR8yROffnWf0X5VgAAANSMwOHEzJN4IZf/QPlWAAAA1IbA4QTNk/jVl2/9S5RvBQAAQA0IHE7YPIlXPv/hnch/AAAAQAAChzPgy7dey5VvJf8BAAAAR6Mc65nx5VsXkm7rPjblWAEAAE4XMw5nxpdvvZMr3/rcdXsAAAAwDAQOZ8qXb70W5VsBAABQAoHDmdsp3/qp46YAAACgx8hxwA8+/2Ep6abK88lxAAAAOF3MOOAHn/8QSfpblG8FAADADgIH/GaexA/zJB6J8q0AAADwCByQaZ7EM7n9H7503BQAAAB0jMABufzypbFc+danblsDAACArpAcjaNM42Qst4Hcxf73SI4GAAA4Xcw44CjzJF7KlW/90G1LAAAA0CZmHFDZfvlWZhwAAABOFzMOqGynfOtbUb4VAADgpDHjAAAAAKAQMw4AAAAAChE4AAAAAChE4AAAAACgEIEDAAAAgEIEDgAAAAAKETgAAAAAKETgAAAAAKAQgQMAAACAQgQOAAAAAAoROAAAAAAoROAAAAAAoBCBAwAAAIBCBA4AAAAAChE4AAAAAChE4AAAAACgEIEDAAAAgEIEDgAAAAAKETgAAAAAKETgAAAAAKAQgQMAAACAQgQOAAAAAAoROAAAAAAo9P8BZ7XbGjnb0nUAAAAASUVORK5CYII=;imageBackground=default;" parent="1" vertex="1">
          <mxGeometry x="40" y="30" width="216.22" height="60" as="geometry" />
        </mxCell>
        <mxCell id="l3YWQojSAwzRVdiFUmDI-11" value="Docker" style="shape=image;verticalLabelPosition=bottom;labelBackgroundColor=none;verticalAlign=top;aspect=fixed;imageAspect=0;image=data:image/png,iVBORw0KGgoAAAANSUhEUgAAAgAAAAIACAYAAAD0eNT6AAAAAXNSR0IArs4c6QAAAARnQU1BAACxjwv8YQUAAAAJcEhZcwAADsMAAA7DAcdvqGQAAAAYdEVYdFNvZnR3YXJlAFBhaW50Lk5FVCA1LjEuNBLfpoMAAAC2ZVhJZklJKgAIAAAABQAaAQUAAQAAAEoAAAAbAQUAAQAAAFIAAAAoAQMAAQAAAAIAAAAxAQIAEAAAAFoAAABphwQAAQAAAGoAAAAAAAAAYAAAAAEAAABgAAAAAQAAAFBhaW50Lk5FVCA1LjEuNAADAACQBwAEAAAAMDIzMAGgAwABAAAAAQAAAAWgBAABAAAAlAAAAAAAAAACAAEAAgAEAAAAUjk4AAIABwAEAAAAMDEwMAAAAADX5rshveZftAAAGbFJREFUeF7t3Quwa1d5H/C1jAMSjzjBEjHvJjwH8ijmVRhamExoktKUThNSSiFNQSJNQooTHoZCxw4lAbc8Ag5MjQRJ6JCMmQ4NtCFJYyY8CsMEsAcTHi4YsA04IBm7BlsCbK8u3fNdQsC+3Mc50n78fjP37O9b5/heS0fS+u+lrb0TAAAAAAAAAAAAAAAAAAAAAAAAAAAAAAAAAAAAAAAAAAAAAAAAAAAAAAAAAAAAAAAAAAAAAAAAAAAAAAAAAAAAAAAAAAAAAAAAAAAAAAAAAAAAAAAAAAAAAAAAAAAAAAAAAAAAAAAAAAAAAAAAAAAAAAAAAAAAAAAAAAAAAAAAAAAAAAAAAAAAAAAAAAAAAAAAAAAAAAAAAAAAAAAAAAAAAAAAAAAAAAAAAAAAAAAAAAAAAAAAAAAAAAAAAADsTo4t0CDD+bJE2ULlRavJ+KxogIY6KbYAQI8IAADQQwIAAPSQAAAAPSQAAEAPCQAA0EMCAAD0kAAAAD0kAABADwkAANBDAgAA9JAAAAA9JAAAQA8JAADQQwIAAPSQAAAAPSQAAEAPCQAA0EMCAAD0kAAAAD0kAABADwkAANBDAgAA9JAAAAA9JAAAQA8JAADQQwIAAPSQAAAAPSQAAEAPCQAA0EMCAAD0kAAAAD0kAABADwkAANBDAgAA9JAAAAA9JAAAQA8JAADQQwIAAPSQAAAAPSQAAEAPCQAA0EM5tkCDDGbL10XZOuvp6OlRAgAAAAAAAAAAAAAAAAAAAABHwYmAOmo4W7wvytZZTcePjPIWuX3NdTS3D9g9AaCjhvNlibJ1VpPRd31cun1NVl60mozPigZoKNcCAIAeEgAAoIcEAADoIQEAAHpIAACAHhIAAKCHBAAA6CEBAAB6SAAAgB4SAACghwQAAOghAQAAekgAAOipzUWnhvPFm6OlZwQAgB4azBdX7FX5CYP58gt7NX0iAAD0zHC2+IOc8t2i3VwX/s5WA/pHAADom5x/Iapvk58wmC2vjIaOEwAAeuRvl/5vXs7pNKsB/SAAAPTEcLb4vW9d+j8yqwFdJwAA9EXOvxjVUTm8GjCYL8+LITpEAADogbr3f3mUxyyn9PThfPHeaOkIAQCg4+rk/Ya6O3/3aI9TfuR3O36AdhEAADov/9soTsjm+IHhfPmVaGk5AQCgw4az5aVR7pfbD2eLm+qfs6OnpQQAgI4azhcvqrvtPxTt/sk51z9n1XDxxhihhQQAgK4q+TlRHYycnjKYLf9XdLSMAADQQYP54k/rBD2I9sDknB43nC/fHS0tIgAAdFBO+aei3IZ/OJgtL4yalhAAADpmOFu+M8qtyTk9qIaAD0VLCwgAAF2T06Oj2qoaAk4fzBbvj5aGEwAAOmQ4W7wvyp3IOT98OF++I1oaTAAA6JKcHxHVLv34YL7846hpKAEAoCPqnvcfRrlzOaXHD+aLc6OlgQQAgK4o5WejaoSc8jOipIEEAIAO2DvrX751tI1R/7++ESUNIwAAdEAp6alRNkw+eTBfXBUNDSIAAHRAzvmuUTZOTvmOg/nyr6KlIQQAgJYbzJavi7KxckoPHcwWvxMtDSAAALRdbtbBf7ekhoB/HyUNIAAAtNxmiT3KZss5D2aLz0XHjgkAAC3WhuX/b7U5VmE4W74xWnZIAABosZzLT0bZHjk9JSp2KMcWgBYazpclynYp6ZOr6ei+0bEDVgAAWmowXzw7yvbJ6T6D2fL50bEDAgBAS+WU/nGUrZRTeV6U7IAAANBWJT08qnbK+XudG2B3BACAtqoTaFStlVP65SjZMgEAgN3J+dYuG7wbAgBAC7Xt8/9HkkueRMkWCQAAbZTT6VG1X06DQ5czZqsEAIAWyindL8pOKCVPo2RLensioOF8eV2UrbOajG4X5S1y+5rraG7fYL64IsoWOumV68mpr4jmZtW9vf9TX34eFG2rlFT+bD0Z7/ziO609AdAR1OeGk9NtUZ8DQGufPEfzJHH7mqvrt69OkS9aTcZnRXOzBrPlh3JLl7DrL+bt68nocdHuTBcDQCrlgtV0/NjoOGDeAgCgGXL68ajYAgEAoGWGs8XLo+yYbE7aInc2QOvkH4iic4bz5buj5IAJAADtc1psu6eUR0bFARMAAFqmpHKnKLsn51tFxQETAADaJufuBoBqOFvMo+QACQAALZNTOTXKjsqPioIDJAAAtE4+OYqOKveNggMkAADQLDk7I+AWCAAANM5gtnx+lBwQAQCAxskpPTDKYzaYX/UbUXIEvV1mcS755nL72n37kmsBHLh2Pz6OTinpovV09M3HSL3N59TBv1dyukeduu5Zn0R3jm/tj5JW9cuy/v1X5pIvqXfwJfXf/634bidZAQCgcXIuPzacLW7ahJ0IPM+tgz+fU/4H+z75b+Q0rH//3evf/7BaP6UG1Bcf/rf3/j8Wlw3myz+pf44YbttEAACggfJJjTkY8ND/R75H/fJP6p+z94LB4sbBbPmBWr8kfqp1BACAtinlxqjYmXxSjQUPqcXzNoFgMFssh7PF6/e+1w4CAEDr5OujoCFyzqfWL0+N1YHN2wWNf6tAAABomZLKtVHSSIfeLjh7OFteP5gtXh2DjSMAALRNTp+PiibLaZhz/rXhfHndcLY4O0YbQwAAaJsiALTMbVPOZ9UQ8NHoG0EAAGibnK6IijbJ+QE1BNwwnC1fGiM7JQAAtI0VgPbK+VY1wJ3ZhNUAAQCgZdbT8X+OkrbarAbMF9+oQWBnZxsUAABgJ/LJNQj8h8F88dcxsFUCAEA7fTW2tFxO+YF7qwHbPTZAAABooVJKo44o50RtVgM2xwYs3xUDB04AAGijnD8cFV2SyzujOnACAEALrSejX4qS7vjqd7uU9n4SAACgGV4b260QAADa69LY0nYlrVeT0ZnRbYUAANBSJaULoqTlSirnRbk1AgBAS60no38XJW1WytfX0/EZ0W2NAADQZiWtoqKlSsrzKLdKAABotfI/o6CNSlqvp6NfjW6rBACAFltNx/8ySlqopPJfo9w6AQCg5eoksoySNilptZ6Ofz26rRMAAFovnx8F7fKa2O6EAADQcuvJ6Bl1d/KmaGmHr66mo+dEvRMCAEAHlJL+R5S0QEnpnCh3RgAA6ID1dPxzUdJwpZTPryejF0e7MwIAQHds7UpyHL8a1u4W5U7l2PbOcLZs7Sk0V9PRT0R5i9y+5jqa2zeYLS+MsnXW09HpUd6iwXz52lzSfaNtl1zev5qMXxhd4wxni5tSzr19bW+B96wmo38U9U55kAB0yHC+fFPdPGmvo1FK+fpqOr5NdDvnLQCADql7l/86lXRdtDRJTi+NqhEEAICOKSm9JEoaopR04WoyPivaRhAAADomp3RKlDTD9evp6MFRN4ZjAAA6Yjhf/HYq+Rn1lf0OMUQDrCajRs61VgAAWm44W/5Rnfy/Xvfpnm/yb5aSyk4u9Xs0rAAAtNBgtnxBzunJtbz/3ghNU1L6wHoyeli0jSMAALTEYL44s75o/7M6szzCZ/2brnxmNRn/UDSN5AEE0GB1T/81OZXH1Qn/njFEw5VUvryejE+NtrEEAICGqHv4z64vyg8rJT2y7uDfNYZpk1KuXU3HrfgUhgAAsEWb9+5TLnfKJZ1WUr5PfRG+f30lHsa3abOSrltNR7ePrvG2HgCG82WJEgA6oS3L/t9qqx8D3BzAEiUAdET5TNsm/43tngeg5HtFBQCtV0r6YNOP9r8lWw0AOaV7RwkArVYn/7etp6OHRts6Wz4TYBEAAGi3ktYllefVyf/xMdJKWz0IcDhf3Fj/SacfBqClysdXk/EDomm1LU/GJn8AWqhspNd2ZfLf2PIKgI8AAtAudeL60Hoyeki0nWGPHABuRt3lv6puzuji5L+xtRWA4euXZ9QY9cpoAaCRSir/L5f0mtV0/IIY6qTtrQDcVMZRAUDjlJS+VHf7f3M9GX9f1yf/ja2tAAzmy/PqP/b0aAGgEeoe/8V10v+xaHtjeysAJd0pKgDYqTrpX133+F+3moxyHyf/je0dAzBbvCfl/KhoAWCr6oR/ZS7lT1fT8dNiqNe29xbAbHFxzvlHogWAg3Z9nfU/WHL6i/Vk9OIYI2xvBWC+vKRu7rvXAcC++lpJ5ZJc8kdW09GTY4wj2OZbAJ9NOd8zWgA4FteXUq6u288d/pNTvqxO9j5efpy29xbAfPmF+o/dOVoA+qjO4qvp2EnoGmCLv4QyiAKA/npHbNmxrQWAnPJtogSgp+re/2OjZMe2uQJw6ygA6KdPxZYG2GIAyCdHAUAflXRuVDTANlcAbogCgL4p6Sur6ejV0dEA2wsAJX8tKgB6p8yioCG2FgBKLgIAQC+Vm1bT8bOioSG2eQyAAADQQ6Wkt0ZJg2wtAORiBQCgj9bT8b+IkgaxAgDAwSnpXVHRMI4BAODArKajx0RJw2zxLYB0bZQA9EAp6aIoaaDtrQCkvIwSgB5YT0enR0kDbe8YgFwEAIDeKB+Pgoba4lsA+aooAei41WT8gChpqG0eBCgAAPRC+UwUNFiO7VYM58sSJQAdtZqMtjq3cHy2dwwAAN1XymejouEEAAD2zWo6/sEoaTgBAIB9UVL5aJS0wHYDQEnrqADomPVk/MNR0gLbXgG4LLYAdEgp6YNR0hJbDQAl+2gIQBetp6OHRklLbHkFIAsAAF1T0rujokW2HADKp6MAoAtKKavp6NHR0SJbDQDryfhlUQLQCfn8KGiZbR8ECEBXlLSue///KjpaZgcBoHwjCgBarVjVbbGtB4CS0v+NEoCWqq/lX1xNx/8xWlpo6wEgp3xxlAC01HoyOi1KWmr7KwAlfSRKAFqovo5fFCUttpNLNrosMEB7udxvN/gUAADHoPjYX0fsJACUUq6JEoC2KOkrq8n4idHRcjsJADm5aARA6+T0gqjogF29BfDe2ALQApur/a0mo3OjpQN2diCHAwEBWqKUG1fT8cnR0RE7PAiw3BAFAM32qtjSITsLAKVk5wMAaLpSrqh7/8+Kjg7Z3QpALo4DAGi4OvnfI0o6ZmcBYD0Z/1qUADRQSeUtUdJBOzwGAICmKiUt6o7az0ZLB+06AHwitgA0yHo6ulOUdNROA0Ap5c+iBKA5/jC2dNjOL+jgfAAAzVFfkK9cT0Z3iZYOa8IxANfHFoAdM/n3x84DQE2b74wSgF0q5Q1R0QM7DwA5JccBAOxcuXw1HT8tGnpg58cAbDgOAGCXyk2ryfhW0dATTTgGYPM+wCVRAbBlpeTfjJIeaUYAyOXNUQGwTSW9az0dvSg6eqQRbwFseBsAYLsOne3PCX96qxkrAFVJ5aNRAnDQSikm/35rTABIJXsbAGBr8sujoKca8xbAhrcBAA5eKemDde//odHSU81ZAahKKhdHCcABKKVcZfJno1EBIKV8fhQA7LdSblxPx6Po6LlGBYD1ZPTbmwdotADso5LT86OEpq0AbB6g+c+jBGCflFTesp6M/0u00KyDAA9zMCDA/imlfGQ9Hf9otHBI41YANkpJX4gSgBNQ9/yvNvlzcxoZAHIuvxclAMet3LSejO8YDfwdjQwAq8n4hZsHbrQAHIdS0nOjhO/QyABwSEkXRAXAMaqT/2w9HTvbH7eokQcBHuZgQIBjVyf/P1lPR/80WrhZzV0BOKR8PAoAjkKd/C80+XM0Gr0CsGEVAODolFI+v56O7xYtHFHDVwDqAzqlK6ME4JaUcq3Jn2PR+ABQE8C5UQFws8o3VtPxKdHAUWn8WwAbg/nimpyyBzfAdyg3rSbjW0UDR635KwBVnfznUQJwWCnF5M/xakUAWE1Gz66br+11AGyUnM6MEo5ZKwLARknlvCgBSOW3XN2PE9GKYwAOG86W19b/4ztEC9BLpaTXrqejX40WjktrVgD2lFdFAdBPJb3J5M9+aNUKwMZgtljmnE+NFqA3Sir/fT0ZPyFaOCEtWwGocnppVAD9UcqbTf7sp9atAGwMZ4vLU853jxag48r5q8n4idHAvmhlANhwjQCgH8of1Mn/F6OBfdO+twBCSeWvogToplLeYPLnoLR2BWBjOF/cWG9Ca0MMwC2pOznz9WQ8jRb2Xasnz5LyLEqAzqiT/6tN/hy0Vq8AbAxmyy/lnMbRArRbSeespqPnRQcHpvUBYMMBgUDrlXLjajo+OTo4cB15/7y8LwqANvqayZ9t68QKwMZwvvh6vTnfEy1AK5RSrllPx98fLWxNZ46gLyX/pygBWqGU9Dcmf3alMysAG4PZ4v0554dHC9BYdc//r+vk/yPRwtZ1KgBsDOfLr9TN7fc6gOYpqfz5ejL+qWhhJzp3Ep3VZHSHKAEap6T0OpM/TdC5FYCNwWzx9pzzT0cL0ADlhtVk7EBlGqOTAWBjMF9clVO+Y7QAO1NS+XLd6z81WmiEzp5H/9CTrRQnCAJ2q5SPmfxpos4GgPCS2AJsXd0DeetqOn5gtNAonX0L4DDHAwDbV26ok/8L657/OTEAjdP5ALAxnC8/VTf32usADk4p5fPr6fhu0UJjdf0tgENWk9G96+b6vQ7ggJT0LpM/bdGLALBRQ8DtogTYX3W3f3MN/9V09JgYgcbrTQDYqE/QV0YJsC9KSl9cTccnrSfjZ8YQtEKvAkB9gv5Gfbb+t2gBTkwp/3s9GZ0WHbRKrwLAxmo6+oX6rP2LaAGOXUnr+vWMuuf/k3sD0D69+BTAzRnMlhfmnB4ULcBRcRU/uqJ3KwCHraej02uK/2S0AEcWB/qZ/OmK3q4AHDaYLxY55VG0ADfn0vg4MXRGb1cADltPxuPNhTqiBfhbpdy4+fSQyZ8u6v0KwGFWAoBvVSf+j9YdhB+OFjqn9ysAhx1aCSjpb6IFeqvcUGf/c0z+dJ0VgG8zmC+/UO+UO0cL9Egp5cPr6fjvRwudZgXg26wno7uUlK6MFuiBOvFfU/f6n2nyp0+sANyC4XxxWb177hEt0EWbT/bl9PuryfipMQK9IQAcwWC2/EDO6SHRAh1Sp/6LDp0PBHrKWwBHUF8cHlpfJN4WLdABJZWr6+YMkz99ZwXgKAzmi3Nzys+IFmilckNJebaejH4lBqDXBICjNJwvn1lfQF5R7zKrJtA2pVywmo4fGx1QCQDHaDhbXlvvtTtECzRaee9qMn5UNMC3EACOw2C++HBO+UejBZqmpEtW09H9owNuhgBwnIbzxe/Xu+/fRAs0QCnpC+vp6K7RAkcgAJyg4Xx5Xd3cdq8DdqGk9KX69RXryficGAK+CwFgH9QQ8Mm6cbUw2LZSrkg5v3w1Gb0qRoCjJADsk+Fs8fr6QuRsYrANpXx2NR3/YHTAcRAA9tlgtvhcztl7kHAQSvr0ajq6V3TACRAADsBgvjwvlzJNNQnEEHACSkofWk9GTssN+8gEdYAG88UVOeW7RQsck3JTSfntdeL/mRgA9pEAcMAGs+Xrci5Pq3e1MwjC0SjpKyWV16+n41+PEeAACABbMpwv3lvv7kdGC3ynT9WJ/7z1ZPyy6IEDJABsWQ0Cl9W7/R7RQr+VcmP9+pfO0w/bJwDswHC2OLve9WfWe38QQ9ArdU//c7nkN62mo+fFELBlAsAODefLN9WXwifWX4PjA+iB8o1S0tvW0/HPxQCwQwJAAwxnyzfWF8cnpZxvFUPQHaV8rOT0RqfphWYRABpEEKA7yuWp5D+yxA/NJQA00GC2eEv9xfxzJxKiTUoqy/qScv56MnpGDAENZoJpsMF8+bv1F7S55PDt90agWUpKV9Yvb11PR78cQ0BLCAAtMZwtP1F/W/eLFnanlMtKrpP+ZPzMGAFaSABomeF8+Zd185i9DrajlPLh+mLxx6vp+OwYAlpOAGip4Wz50pLKk115kINQH1tX1xeHC1aT8c/HENAxAkAHHLr6YEpPqqVjBThOhy68c1EuddJ35D70ggDQMcP58h2plEf7KCFH4ROlpPesp6OnRw/0iADQYXFegcfXMPC9MUSflfTpktMF68nol2IE6DEBoCc2lyWum5/JOZ22N0KnlXRdfXZfWLfvX01Hz41RgG8SAHqohoEX5FQek/KhyxPfdm+U1irl6yXli+uz+QN17/5XYhTgiAQANgcRvjCXVANBekRtBYJm+2pJ6eO5lItX0/EkxgCOmQDAdxjMF8/JJZ9eywfX3ct7OyXxDhzaq68Tfc4fKyV9ZD0dvSS+A7AvvLBzVAazxbPqZPTgVNLpKZf71IeOSxifqFJurM/Ay+t9emlJ+VP1fr10PRm/LL4LcKAEAE7IobcPUrpfSeW+tb1PTvn7975DneFvqHvvX6zPsivqJH9lHbh8PR2fsfc9gN0SADgwg9lic0KZu9RH2V1zSXcuOd29PuB+oD7svmfvJ9rp0FnySl7W7ZdTzlflsrkKXvrcajp+wd5PADSfAEAjDOaLM3PK31dSOqU+KE+pe851W07Z6/Pt4sdSyeWbKwx1fHPA4m32ur+rlHJN/YH6n4eSv1b/3uujWZecVzWUXFNDyar+2KqUfM1mvP6d19eJ/Zp8Ul6vnjb6nb2fBwAAAAAAAAAAAAAAAAAAAAAAAAAAAAAAAAAAAAAAAAAAAAAAAAAAAAAAAAAAAAAAAAAAAAAAAAAAAAAAAAAAAAAAAAAAAAAAAAAAAAAAAAAAAAAAAAAAAAAAAAAAAAAAAAAAAAAAAAAAAAAAAAAAAAAAAAAAAAAAAAAAAAAAAAAAAAAAAAAAAAAAAAAAAAAAAAAAAAAAAAAAAAAAAAAAAAAAAAAAAAAAAAAAAAAAAAAAAAAAAAAAAAAAAAAAAPZNSv8fmWGmrW5TsqYAAAAASUVORK5CYII=;fontStyle=1" parent="1" vertex="1">
          <mxGeometry x="858.75" y="710" width="52.5" height="52.5" as="geometry" />
        </mxCell>
        <mxCell id="J3Fev1QAeGgDC-BThsLJ-1" value="" style="edgeStyle=orthogonalEdgeStyle;rounded=0;orthogonalLoop=1;jettySize=auto;html=1;" parent="1" source="l3YWQojSAwzRVdiFUmDI-2" edge="1">
          <mxGeometry relative="1" as="geometry">
            <mxPoint x="379" y="848" as="targetPoint" />
          </mxGeometry>
        </mxCell>
      </root>
    </mxGraphModel>
  </diagram>
</mxfile>
